# Blender v2.93.4 OBJ File: 'basket.blend'
# www.blender.org
mtllib basket.mtl
o Basket.001_Circle.001
v 0.000000 0.000000 -0.500000
v -0.430000 0.000000 -0.250000
v -0.430000 0.000000 0.250000
v 0.000000 0.000000 0.500000
v 0.430000 0.000000 0.250000
v 0.430000 -0.000000 -0.250000
v -0.430000 0.050000 -0.250000
v -0.429845 0.049919 0.250210
v 0.000000 0.050000 0.500000
v 0.430000 0.050000 0.250000
v 0.430000 0.050000 -0.250000
v 0.000000 0.050000 0.470000
v 0.400000 0.050000 -0.230000
v -0.400232 0.050122 0.229685
v -0.400000 0.050000 -0.230000
v 0.400000 0.050000 0.230000
v -0.396319 0.050000 -0.269582
v -0.367001 0.050000 -0.249799
v -0.430000 0.050000 -0.201604
v -0.400000 0.050000 -0.201604
v -0.430000 0.050000 0.200332
v -0.400000 0.050000 0.200332
v -0.390549 0.050000 0.272937
v -0.369620 0.050000 0.248228
v -0.037692 0.050000 0.478086
v -0.022453 0.050000 0.456528
v 0.028064 0.050000 0.453162
v 0.041958 0.050000 0.475606
v 0.388206 0.050034 0.274283
v 0.369828 0.049949 0.248125
v 0.400000 0.050000 0.192701
v 0.430000 0.050000 0.192701
v 0.430000 0.050000 -0.191429
v 0.400000 0.050000 -0.191429
v 0.387697 0.050000 -0.274595
v 0.371491 0.050000 -0.247106
v 0.045368 0.050016 -0.473639
v -0.048060 0.050000 -0.472058
v -0.032927 0.050000 -0.450244
v 0.000000 0.050000 -0.500000
v 0.000000 0.050000 -0.470000
v 0.028750 0.049976 -0.452729
v -0.328258 1.002514 0.704523
v -0.323869 1.002543 0.661029
v 0.776343 1.001501 -0.072619
v 0.723535 1.000890 -0.061939
v -0.776885 1.002339 0.057843
v -0.740876 1.001845 0.045732
v -0.443785 1.002393 -0.639563
v -0.414627 1.002324 -0.610671
v 0.441484 1.002351 0.645792
v 0.407212 1.002348 0.606302
v -0.400127 1.002891 -0.692932
v -0.382647 1.002892 -0.649463
v -0.399858 1.002914 0.692089
v -0.382579 1.002891 0.649495
v 0.399735 1.002862 0.692849
v 0.327379 1.002541 -0.705780
v 0.315100 1.002748 -0.659410
v -0.334194 1.002160 -0.703979
v -0.776976 1.001816 -0.061085
v -0.449243 1.002535 0.634606
v 0.323849 1.002312 0.707822
v 0.774965 1.002396 0.069077
v 0.444642 1.005685 -0.637210
v 0.311622 1.002628 0.660529
v 0.410006 1.002994 -0.600853
v -0.416577 1.002302 0.609344
v -0.739126 1.001814 -0.051098
v -0.326282 1.002656 -0.659778
v 0.724638 1.002285 0.051678
v 0.799812 1.002897 -0.000106
v 0.367436 1.002909 -0.649676
v -0.799690 1.002899 -0.000104
v 0.742599 1.002899 -0.000106
v -0.757596 1.002891 0.000000
v 0.367563 1.002925 0.649466
v 0.399572 1.002908 -0.692256
v 0.799865 1.052840 0.000036
v 0.400084 1.052906 0.692891
v -0.400000 1.053225 0.692829
v -0.800021 1.053150 -0.000004
v -0.400033 1.052921 -0.692841
v -0.382623 1.052926 -0.649607
v 0.367338 1.052780 -0.649524
v -0.757593 1.053142 0.000001
v 0.367419 1.052925 0.649614
v -0.382630 1.053211 0.649658
v 0.742436 1.052846 0.000090
v 0.400135 1.052757 -0.692931
v 0.006284 1.054970 -0.765113
v 0.678001 1.054924 -0.370315
v 0.658611 1.055275 0.408777
v 0.612280 1.055244 0.380593
v -0.005630 1.055291 0.721847
v -0.005649 1.055315 0.770162
v -0.662593 1.055349 0.378262
v -0.627200 1.055325 0.358211
v 0.006297 1.001892 -0.716353
v 0.006268 1.000993 -0.765088
v 0.006281 1.054971 -0.716955
v 0.627632 1.054929 -0.347443
v 0.629050 1.001322 -0.347620
v 0.609188 1.001110 0.384672
v 0.655597 1.001306 0.414402
v -0.005631 1.001713 0.720913
v -0.627381 1.001116 0.357784
v -0.662055 1.001119 0.378252
v -0.673732 1.055192 -0.354048
v -0.636226 1.001112 -0.337604
v -0.674138 1.001113 -0.353111
v -0.635807 1.055184 -0.338313
v -0.004998 1.001011 0.769740
v 0.660134 1.029565 0.404973
v 0.682275 1.001692 -0.361055
v 0.666461 1.035310 -0.349785
vt 0.000000 0.000000
vt 1.000000 0.000000
vt 1.000000 1.000000
vt 0.000000 0.000000
vt 1.000000 0.000000
vt 1.000000 1.000000
vt 0.000000 0.000000
vt 1.000000 0.000000
vt 1.000000 1.000000
vt 0.000000 0.000000
vt 1.000000 0.000000
vt 1.000000 1.000000
vt 0.000000 0.000000
vt 1.000000 0.000000
vt 1.000000 1.000000
vt 0.000000 0.000000
vt 1.000000 0.000000
vt 1.000000 1.000000
vt 0.000000 0.000000
vt 1.000000 0.000000
vt 1.000000 1.000000
vt 0.000000 0.000000
vt 1.000000 0.000000
vt 1.000000 1.000000
vt 0.000000 0.000000
vt 1.000000 0.000000
vt 1.000000 1.000000
vt 0.000000 0.000000
vt 1.000000 0.000000
vt 1.000000 1.000000
vt 0.000000 0.000000
vt 1.000000 1.000000
vt 0.000000 0.000000
vt 1.000000 1.000000
vt 0.000000 0.000000
vt 1.000000 0.000000
vt 1.000000 1.000000
vt 0.000000 0.000000
vt 1.000000 0.000000
vt 1.000000 1.000000
vt 0.000000 0.000000
vt 1.000000 0.000000
vt 1.000000 1.000000
vt 0.000000 0.000000
vt 1.000000 0.000000
vt 1.000000 0.000000
vt 0.000000 0.000000
vt 1.000000 0.000000
vt 1.000000 1.000000
vt 0.000000 0.000000
vt 1.000000 0.000000
vt 1.000000 1.000000
vt 1.000000 0.000000
vt 1.000000 1.000000
vt 0.000000 0.000000
vt 1.000000 0.000000
vt 1.000000 1.000000
vt 0.000000 0.000000
vt 1.000000 0.000000
vt 1.000000 1.000000
vt 0.000000 0.000000
vt 1.000000 1.000000
vt 0.000000 0.000000
vt 1.000000 0.000000
vt 1.000000 1.000000
vt 1.000000 0.000000
vt 1.000000 1.000000
vt 0.000000 0.000000
vt 1.000000 0.000000
vt 1.000000 1.000000
vt 1.000000 0.000000
vt 1.000000 1.000000
vt 0.000000 0.000000
vt 1.000000 0.000000
vt 1.000000 1.000000
vt 0.000000 0.000000
vt 1.000000 0.000000
vt 1.000000 1.000000
vt 0.000000 0.000000
vt 1.000000 0.000000
vt 0.000000 0.000000
vt 0.000000 0.000000
vt 1.000000 0.000000
vt 1.000000 1.000000
vt 0.000000 0.000000
vt 1.000000 0.000000
vt 0.000000 0.000000
vt 1.000000 0.000000
vt 1.000000 1.000000
vt 1.000000 0.000000
vt 1.000000 1.000000
vt 0.000000 0.000000
vt 0.000000 0.000000
vt 1.000000 1.000000
vt 0.000000 0.000000
vt 1.000000 0.000000
vt 1.000000 1.000000
vt 1.000000 0.000000
vt 1.000000 1.000000
vt 1.000000 0.000000
vt 1.000000 1.000000
vt 1.000000 0.000000
vt 1.000000 1.000000
vt 0.000000 0.000000
vt 1.000000 1.000000
vt 0.000000 0.000000
vt 1.000000 1.000000
vt 0.000000 0.000000
vt 1.000000 0.000000
vt 1.000000 1.000000
vt 0.000000 0.000000
vt 1.000000 0.000000
vt 1.000000 1.000000
vt 1.000000 0.000000
vt 1.000000 1.000000
vt 0.000000 0.000000
vt 1.000000 1.000000
vt 1.000000 1.000000
vt 1.000000 0.000000
vt 1.000000 1.000000
vt 1.000000 1.000000
vt 1.000000 0.000000
vt 1.000000 1.000000
vt 1.000000 0.000000
vt 1.000000 1.000000
vt 0.000000 0.000000
vt 1.000000 0.000000
vt 0.000000 0.000000
vt 1.000000 1.000000
vt 1.000000 0.000000
vt 1.000000 1.000000
vt 0.000000 0.000000
vt 1.000000 1.000000
vt 1.000000 0.000000
vt 1.000000 1.000000
vt 0.000000 0.000000
vt 1.000000 0.000000
vt 1.000000 1.000000
vt 0.000000 0.000000
vt 1.000000 0.000000
vt 1.000000 1.000000
vt 0.000000 0.000000
vt 0.000000 0.000000
vt 1.000000 1.000000
vt 0.000000 0.000000
vt 0.000000 0.000000
vt 1.000000 0.000000
vt 1.000000 1.000000
vt 0.000000 0.000000
vt 1.000000 0.000000
vt 1.000000 1.000000
vt 1.000000 0.000000
vt 1.000000 0.000000
vt 1.000000 1.000000
vt 1.000000 0.000000
vt 1.000000 1.000000
vt 0.000000 0.000000
vt 1.000000 0.000000
vt 0.000000 0.000000
vt 1.000000 0.000000
vt 1.000000 0.000000
vt 0.000000 0.000000
vt 1.000000 0.000000
vt 1.000000 1.000000
vt 1.000000 0.000000
vt 1.000000 1.000000
vt 1.000000 1.000000
vt 1.000000 1.000000
vt 1.000000 1.000000
vt 0.000000 0.000000
vt 1.000000 0.000000
vt 1.000000 0.000000
vt 1.000000 1.000000
vt 0.000000 0.000000
vt 1.000000 0.000000
vt 1.000000 1.000000
vt 1.000000 0.000000
vt 1.000000 0.000000
vt 1.000000 0.000000
vt 1.000000 1.000000
vt 1.000000 0.000000
vt 1.000000 1.000000
vt 0.000000 0.000000
vt 1.000000 1.000000
vt 1.000000 0.000000
vt 0.000000 0.000000
vt 1.000000 0.000000
vt 1.000000 1.000000
vt 1.000000 0.000000
vt 1.000000 1.000000
vt 0.000000 0.000000
vt 1.000000 1.000000
vt 1.000000 0.000000
vt 0.000000 0.000000
vt 1.000000 1.000000
vt 1.000000 1.000000
vt 1.000000 0.000000
vt 1.000000 0.000000
vt 0.000000 0.000000
vt 1.000000 0.000000
vt 1.000000 1.000000
vt 0.000000 0.000000
vt 1.000000 1.000000
vt 0.000000 0.000000
vt 1.000000 0.000000
vt 1.000000 1.000000
vt 1.000000 0.000000
vt 1.000000 1.000000
vt 0.000000 0.000000
vt 1.000000 0.000000
vt 1.000000 1.000000
vt 1.000000 0.000000
vt 1.000000 0.000000
vt 1.000000 1.000000
vt 1.000000 0.000000
vt 0.000000 0.000000
vt 1.000000 0.000000
vt 0.000000 0.000000
vt 1.000000 0.000000
vt 1.000000 0.000000
vt 0.000000 0.000000
vt 1.000000 0.000000
vt 0.000000 0.000000
vt 0.000000 0.000000
vt 1.000000 0.000000
vt 1.000000 1.000000
vt 0.000000 0.000000
vt 1.000000 1.000000
vt 1.000000 1.000000
vt 1.000000 0.000000
vt 1.000000 1.000000
vt 1.000000 0.000000
vt 0.000000 0.000000
vt 1.000000 0.000000
vt 1.000000 1.000000
vt 1.000000 0.000000
vt 1.000000 1.000000
vt 1.000000 0.000000
vt 0.000000 0.000000
vt 1.000000 1.000000
vt 1.000000 1.000000
vt 1.000000 0.000000
vt 1.000000 1.000000
vt 1.000000 0.000000
vt 0.000000 0.000000
vt 1.000000 1.000000
vt 1.000000 0.000000
vt 1.000000 1.000000
vt 1.000000 1.000000
vt 1.000000 1.000000
vt 0.000000 0.000000
vt 1.000000 0.000000
vt 1.000000 0.000000
vt 1.000000 1.000000
vt 1.000000 0.000000
vt 1.000000 0.000000
vt 1.000000 1.000000
vt 0.000000 0.000000
vt 1.000000 1.000000
vt 1.000000 1.000000
vt 0.000000 0.000000
vt 0.000000 0.000000
vt 0.000000 0.000000
vt 1.000000 0.000000
vt 1.000000 0.000000
vt 0.000000 0.000000
vt 1.000000 0.000000
vt 1.000000 1.000000
vt 1.000000 0.000000
vt 1.000000 1.000000
vt 1.000000 1.000000
vt 1.000000 1.000000
vt 1.000000 0.000000
vt 1.000000 0.000000
vt 0.000000 0.000000
vt 1.000000 1.000000
vt 1.000000 0.000000
vt 1.000000 1.000000
vt 0.000000 0.000000
vt 0.000000 0.000000
vt 1.000000 1.000000
vt 1.000000 1.000000
vt 1.000000 0.000000
vt 0.000000 0.000000
vt 1.000000 0.000000
vt 1.000000 0.000000
vt 1.000000 1.000000
vt 1.000000 0.000000
vt 0.000000 0.000000
vt 0.000000 0.000000
vt 1.000000 0.000000
vt 1.000000 1.000000
vt 1.000000 1.000000
vt 0.000000 0.000000
vt 0.000000 0.000000
vt 0.000000 0.000000
vt 1.000000 0.000000
vt 1.000000 1.000000
vt 1.000000 0.000000
vt 0.000000 0.000000
vt 0.000000 0.000000
vt 1.000000 1.000000
vt 0.000000 0.000000
vt 1.000000 1.000000
vt 1.000000 0.000000
vt 1.000000 1.000000
vt 1.000000 0.000000
vt 0.000000 0.000000
vn 0.9251 0.1142 0.3621
vn -0.9997 -0.0150 -0.0176
vn -0.3059 0.9251 0.2250
vn -0.6221 0.7828 -0.0081
vn 0.7689 0.6393 0.0101
vn 0.6463 0.6592 -0.3843
vn 0.1703 0.0805 0.9821
vn 0.7795 0.1235 0.6140
vn 0.6867 -0.6102 0.3951
vn -0.3533 0.9231 0.1516
vn -0.4625 -0.1391 0.8756
vn -0.4827 -0.0204 0.8755
vn -0.4776 -0.0170 -0.8784
vn 0.4779 -0.2259 0.8489
vn -0.1888 0.0595 0.9802
vn -0.8458 0.5244 0.0980
vn -0.8711 0.0379 0.4896
vn 0.3052 0.9261 0.2216
vn 0.9984 -0.0542 -0.0139
vn 0.9998 -0.0215 -0.0023
vn -0.5625 0.7601 -0.3251
vn -0.5603 -0.7542 -0.3422
vn -0.4458 -0.1411 -0.8839
vn -0.9261 0.1096 0.3610
vn -0.5595 -0.7120 -0.4242
vn -0.8713 0.0373 -0.4893
vn 0.8327 -0.3146 0.4557
vn 0.3789 0.6379 0.6704
vn 0.4327 -0.4251 -0.7950
vn -0.9945 -0.1042 0.0099
vn -0.0016 0.0350 0.9994
vn 0.0000 -0.6095 0.7927
vn -0.6454 0.6720 -0.3630
vn 0.5776 0.7479 0.3270
vn 0.3066 0.7950 0.5234
vn -0.6869 -0.6101 0.3949
vn -0.9264 0.1107 -0.3599
vn -0.6867 -0.6102 -0.3951
vn 0.6116 0.7911 -0.0012
vn 0.5743 -0.7489 -0.3306
vn 0.6867 -0.6102 -0.3951
vn -0.0000 -0.6096 -0.7927
vn 0.7865 0.1673 -0.5945
vn -0.7830 0.1372 0.6066
vn -0.0227 0.9192 -0.3932
vn 0.3305 0.9369 -0.1142
vn -0.3435 0.9294 -0.1350
vn 0.3114 0.7902 -0.5278
vn 0.5728 0.7497 -0.3315
vn -0.6447 0.6685 0.3706
vn -0.2544 -0.0091 -0.9670
vn 0.5211 -0.0214 0.8532
vn 0.2845 0.9564 0.0656
vn -0.9862 -0.1541 -0.0609
vn 0.8713 0.0342 0.4895
vn 0.8132 -0.3071 -0.4943
vn 0.9745 -0.2237 0.0155
vn 0.5791 -0.7477 0.3250
vn 0.0508 -0.2646 0.9630
vn 0.4415 0.8636 0.2431
vn 0.8705 0.0299 -0.4913
vn -0.0534 -0.3146 -0.9477
vn 0.4936 -0.2326 -0.8380
vn -0.3059 0.7873 0.5353
vn -0.0033 0.7538 0.6571
vn -0.5063 -0.1323 0.8521
vn -0.4946 -0.2323 0.8375
vn -0.3940 0.6325 0.6668
vn 0.6428 0.6562 0.3952
vn 0.0173 0.9158 0.4013
vn -0.0022 0.8618 0.5072
vn -0.0253 0.9206 0.3896
vn -0.3033 0.7838 -0.5418
vn -0.0031 0.6654 0.7465
vn -0.4494 0.8588 0.2457
vn 0.4906 -0.0834 -0.8674
vn 0.1694 -0.9130 0.3710
vn 0.9253 0.1141 -0.3616
vn -0.4470 0.8609 -0.2431
vn 0.9987 -0.0511 0.0007
vn -0.3331 -0.8697 0.3641
vn -0.0024 0.8611 -0.5084
vn -0.8947 0.3374 -0.2926
vn -0.9725 -0.2326 0.0059
vn -0.0010 0.0366 -0.9993
vn 0.5249 -0.0203 -0.8509
vn 0.3039 0.9270 -0.2196
vn 0.4452 0.8625 -0.2404
vn -0.4982 -0.2217 -0.8382
vn -0.7729 0.6346 0.0029
vn -0.5130 -0.1287 -0.8487
vn -0.0003 0.7581 -0.6521
vn -0.6396 -0.6743 0.3690
vn 0.7881 -0.3311 0.5189
vn -0.1928 0.3648 0.9109
vn 0.0340 0.9241 -0.3807
vn 0.4532 -0.7883 0.4162
vn 0.1564 0.1077 -0.9818
vn 0.8447 -0.3103 -0.4361
vn -0.5778 0.7470 0.3288
vn -0.5624 -0.7661 0.3112
vn -0.7833 0.1386 -0.6060
vn -0.3062 0.9250 -0.2247
vn 0.1080 -0.7593 -0.6417
vn -0.6462 -0.6727 -0.3605
vn 0.3930 0.6293 -0.6705
vn 0.0026 0.6702 -0.7421
vn 0.7713 -0.4184 -0.4795
vn -0.3926 0.6358 -0.6645
vn 0.0028 -0.6763 -0.7366
vn 0.8768 -0.0036 0.4808
vn -0.0009 -0.7412 -0.6713
vn -0.0013 -0.6753 0.7375
vn -0.0031 -0.7391 0.6735
vn 0.6375 -0.6442 0.4226
vn 0.6605 0.4988 -0.5611
usemtl Material
s 1
f 33/1/1 75/2/2 34/3/3
f 89/4/4 79/5/5 92/6/6
f 29/7/7 28/8/8 5/9/9
f 36/10/10 67/11/11 73/12/12
f 28/13/8 77/14/13 57/15/14
f 23/16/15 62/17/16 8/18/17
f 20/19/18 69/20/19 76/21/20
f 94/22/21 104/23/22 52/24/23
f 19/25/24 61/26/25 7/27/26
f 57/28/14 51/29/27 80/30/28
f 8/31/17 62/17/16 68/32/29
f 71/33/30 104/23/22 94/34/21
f 9/35/31 4/36/32 28/37/8
f 109/38/33 112/39/34 84/40/35
f 3/41/36 21/42/37 2/43/38
f 86/44/39 107/45/40 76/21/20
f 19/25/24 20/46/18 76/21/20
f 6/47/41 1/48/42 37/49/43
f 25/50/44 26/51/45 24/52/46
f 28/13/8 29/53/7 30/54/47
f 88/55/48 98/56/49 97/57/50
f 17/58/51 54/59/52 18/60/53
f 46/61/54 75/2/2 89/62/4
f 10/63/55 29/53/7 5/9/9
f 33/1/1 45/64/56 72/65/57
f 86/44/39 76/66/20 110/67/58
f 18/68/53 50/69/59 15/70/60
f 6/47/41 11/71/61 33/72/1
f 37/73/43 58/74/62 78/75/63
f 85/76/64 101/77/65 59/78/66
f 55/79/67 81/80/68 97/57/50
f 93/81/69 79/5/5 89/62/4
f 42/82/70 41/83/71 39/84/72
f 87/85/73 96/86/74 80/30/28
f 34/87/3 46/88/54 13/89/75
f 9/35/31 44/90/76 43/91/77
f 29/7/7 51/29/27 57/15/14
f 32/92/78 75/2/2 72/65/57
f 11/93/61 46/88/54 45/94/56
f 30/95/47 52/96/23 16/97/79
f 25/50/44 43/98/77 55/99/67
f 8/31/17 48/100/80 47/101/81
f 10/63/55 5/102/9 32/103/78
f 26/104/45 44/90/76 12/105/82
f 7/106/26 50/69/59 49/107/83
f 21/108/37 47/109/81 74/110/84
f 40/111/85 59/112/66 58/113/62
f 25/50/44 56/114/86 26/115/45
f 22/116/87 48/100/80 14/117/88
f 42/82/70 59/112/66 41/118/71
f 17/58/51 49/119/83 53/120/89
f 10/63/55 52/96/23 51/121/27
f 86/44/39 109/122/33 82/123/90
f 87/85/73 66/124/91 95/125/92
f 47/126/81 108/127/93 74/110/84
f 64/128/94 104/23/22 71/129/30
f 28/13/8 63/130/95 9/131/31
f 9/35/31 66/124/91 12/105/82
f 27/132/96 66/124/91 77/133/13
f 23/16/15 56/114/86 55/99/67
f 32/92/78 64/134/94 10/135/55
f 11/93/61 67/11/11 13/89/75
f 39/136/72 70/137/97 54/138/52
f 35/139/98 65/140/99 11/141/61
f 112/142/34 54/59/52 84/40/35
f 102/143/100 67/11/11 103/144/101
f 38/145/102 54/59/52 53/120/89
f 31/146/103 71/147/30 75/148/2
f 7/106/26 69/20/19 15/70/60
f 24/149/46 68/150/29 56/151/86
f 35/139/98 73/152/12 78/75/63
f 40/111/85 70/137/97 41/118/71
f 38/145/102 60/153/104 40/154/85
f 10/63/55 71/147/30 16/97/79
f 37/73/43 36/155/10 35/156/98
f 44/157/76 88/158/48 95/125/92
f 79/159/5 72/160/57 45/94/56
f 22/116/87 14/161/88 24/52/46
f 49/162/83 110/163/58 111/164/105
f 94/22/21 80/165/28 93/166/69
f 85/76/64 73/152/12 67/167/11
f 64/128/94 72/160/57 79/168/5
f 47/126/81 107/45/40 108/169/93
f 90/170/106 78/171/63 58/113/62
f 85/76/64 91/172/107 101/173/65
f 74/174/84 111/175/105 61/176/25
f 36/10/10 13/177/75 67/167/11
f 28/13/8 27/178/96 77/133/13
f 23/16/15 55/179/67 62/180/16
f 20/19/18 15/181/60 69/182/19
f 51/183/27 52/96/23 104/184/22
f 19/25/24 74/185/84 61/176/25
f 111/186/105 74/185/84 82/123/90
f 30/95/47 24/187/46 27/188/96
f 46/61/54 103/189/101 115/190/108
f 52/191/23 77/14/13 87/192/73
f 109/38/33 83/193/109 53/120/89
f 62/194/16 108/127/93 107/195/40
f 47/126/81 48/100/80 107/195/40
f 18/68/53 20/46/18 22/196/87
f 31/146/103 34/197/3 18/60/53
f 34/87/3 36/155/10 39/84/72
f 36/10/10 42/198/70 39/84/72
f 2/199/38 7/200/26 17/201/51
f 103/202/101 67/11/11 65/203/99
f 4/204/32 9/205/31 25/206/44
f 38/145/102 40/207/85 1/208/42
f 100/209/110 53/210/89 83/211/109
f 39/136/72 18/212/53 34/3/3
f 102/143/100 92/213/6 90/214/106
f 94/22/21 89/215/4 71/129/30
f 92/216/6 115/217/108 65/203/99
f 98/218/49 88/158/48 56/151/86
f 51/183/27 114/219/111 93/166/69
f 32/92/78 33/220/1 34/3/3
f 38/145/102 1/48/42 2/43/38
f 97/221/50 82/222/90 74/110/84
f 69/223/19 61/26/25 111/164/105
f 24/149/46 26/51/45 27/188/96
f 17/58/51 53/210/89 54/138/52
f 43/224/77 106/225/112 113/226/113
f 58/227/62 59/112/66 99/228/114
f 33/1/1 11/71/61 45/94/56
f 19/25/24 21/42/37 22/196/87
f 18/68/53 54/59/52 50/229/59
f 21/108/37 76/66/20 22/196/87
f 37/73/43 40/207/85 58/113/62
f 37/73/43 35/230/98 6/231/41
f 38/145/102 17/232/51 18/60/53
f 70/233/97 99/234/114 54/138/52
f 34/87/3 75/2/2 46/235/54
f 9/35/31 12/236/82 44/237/76
f 29/7/7 10/238/55 51/121/27
f 59/239/66 73/152/12 85/240/64
f 11/93/61 13/177/75 46/235/54
f 30/95/47 77/14/13 52/24/23
f 25/50/44 9/205/31 43/91/77
f 8/31/17 14/161/88 48/241/80
f 30/95/47 16/242/79 31/243/103
f 26/104/45 56/114/86 44/237/76
f 7/106/26 15/181/60 50/229/59
f 21/108/37 8/244/17 47/101/81
f 40/111/85 41/83/71 59/78/66
f 25/50/44 55/179/67 56/151/86
f 22/116/87 76/66/20 48/241/80
f 42/82/70 73/152/12 59/78/66
f 17/58/51 7/200/26 49/107/83
f 10/63/55 16/242/79 52/24/23
f 60/245/104 99/234/114 70/246/97
f 28/13/8 57/247/14 63/248/95
f 9/35/31 63/130/95 66/249/91
f 27/132/96 12/236/82 66/249/91
f 23/16/15 24/187/46 56/151/86
f 32/92/78 72/160/57 64/250/94
f 11/93/61 65/140/99 67/167/11
f 39/136/72 41/83/71 70/246/97
f 35/139/98 78/171/63 65/203/99
f 80/251/28 113/252/113 57/15/14
f 38/145/102 39/253/72 54/138/52
f 31/146/103 16/242/79 71/129/30
f 7/106/26 61/26/25 69/182/19
f 24/149/46 14/161/88 68/32/29
f 35/139/98 36/155/10 73/12/12
f 40/111/85 60/153/104 70/246/97
f 38/145/102 53/210/89 60/254/104
f 10/63/55 64/134/94 71/129/30
f 11/93/61 6/255/41 35/156/98
f 97/221/50 86/256/39 82/123/90
f 18/68/53 15/181/60 20/257/18
f 96/258/74 88/158/48 81/259/68
f 92/216/6 65/140/99 90/214/106
f 37/73/43 73/152/12 42/260/70
f 1/261/42 6/255/41 2/43/38
f 84/262/35 99/234/114 101/173/65
f 96/258/74 55/179/67 113/226/113
f 91/263/107 84/264/35 101/173/65
f 91/263/107 90/265/106 58/113/62
f 76/266/20 107/45/40 48/241/80
f 7/106/26 2/267/38 19/268/24
f 89/4/4 102/269/100 46/235/54
f 3/41/36 2/267/38 6/231/41
f 109/38/33 84/264/35 83/211/109
f 25/50/44 24/187/46 23/270/15
f 44/157/76 56/114/86 88/271/48
f 58/227/62 99/234/114 100/272/110
f 21/108/37 74/185/84 76/21/20
f 103/202/101 65/140/99 115/190/108
f 55/79/67 97/273/50 108/169/93
f 91/263/107 83/193/109 84/40/35
f 97/221/50 74/185/84 108/169/93
f 79/159/5 93/274/69 64/250/94
f 1/261/42 40/207/85 37/49/43
f 46/61/54 115/217/108 45/94/56
f 65/275/99 78/171/63 90/214/106
f 86/44/39 112/39/34 109/276/33
f 52/191/23 87/277/73 94/34/21
f 111/186/105 53/210/89 49/107/83
f 62/194/16 107/45/40 68/32/29
f 89/4/4 92/213/6 102/278/100
f 89/4/4 75/2/2 71/129/30
f 86/44/39 98/56/49 107/195/40
f 110/279/58 54/59/52 50/229/59
f 8/31/17 68/150/29 14/117/88
f 5/280/9 4/36/32 3/281/36
f 97/221/50 98/56/49 86/282/39
f 8/31/17 3/283/36 23/270/15
f 114/284/111 105/285/115 64/250/94
f 57/28/14 113/252/113 63/248/95
f 30/95/47 31/286/103 24/52/46
f 69/223/19 111/175/105 110/67/58
f 92/216/6 79/5/5 45/94/56
f 86/44/39 110/163/58 112/287/34
f 23/16/15 4/36/32 25/206/44
f 110/279/58 50/69/59 54/138/52
f 21/108/37 19/288/24 2/43/38
f 32/92/78 34/197/3 31/243/103
f 93/81/69 89/215/4 94/34/21
f 102/143/100 90/265/106 85/240/64
f 33/1/1 72/160/57 75/148/2
f 111/186/105 82/222/90 109/276/33
f 94/22/21 87/277/73 80/30/28
f 98/218/49 56/114/86 107/195/40
f 95/289/92 106/225/112 44/237/76
f 88/55/48 97/273/50 81/259/68
f 8/31/17 21/42/37 3/281/36
f 64/128/94 105/285/115 104/184/22
f 49/162/83 50/69/59 110/67/58
f 77/290/13 66/124/91 87/192/73
f 29/7/7 77/14/13 30/54/47
f 87/85/73 95/291/92 96/292/74
f 22/116/87 24/187/46 18/60/53
f 38/145/102 18/212/53 39/84/72
f 51/183/27 104/23/22 105/293/115
f 102/143/100 103/189/101 46/235/54
f 80/251/28 96/86/74 113/226/113
f 112/142/34 110/163/58 54/138/52
f 101/294/65 99/234/114 59/78/66
f 116/295/116 115/217/108 65/203/99
f 53/296/89 100/297/110 60/254/104
f 38/145/102 2/267/38 17/201/51
f 37/73/43 42/198/70 36/298/10
f 19/25/24 22/299/87 20/257/18
f 29/7/7 57/247/14 77/133/13
f 63/300/95 106/225/112 66/249/91
f 84/262/35 54/59/52 99/228/114
f 68/301/29 107/45/40 56/151/86
f 43/224/77 113/252/113 55/99/67
f 58/227/62 100/297/110 91/302/107
f 80/251/28 51/29/27 93/166/69
f 37/73/43 78/171/63 73/12/12
f 31/146/103 18/212/53 24/52/46
f 32/92/78 31/286/103 75/148/2
f 96/258/74 81/80/68 55/99/67
f 109/38/33 53/210/89 111/164/105
f 6/47/41 5/102/9 3/281/36
f 96/258/74 95/291/92 88/271/48
f 115/303/108 92/213/6 45/94/56
f 26/104/45 12/236/82 27/188/96
f 63/300/95 113/252/113 106/304/112
f 100/209/110 83/193/109 91/302/107
f 60/245/104 100/297/110 99/228/114
f 93/81/69 114/219/111 64/250/94
f 43/224/77 44/90/76 106/304/112
f 85/76/64 90/265/106 91/302/107
f 3/41/36 4/36/32 23/270/15
f 102/143/100 85/305/64 67/167/11
f 5/280/9 6/255/41 33/72/1
f 51/183/27 105/285/115 114/306/111
f 5/280/9 33/220/1 32/103/78
f 28/13/8 4/36/32 5/9/9
f 28/13/8 30/307/47 27/188/96
f 66/308/91 106/225/112 95/125/92
f 34/87/3 13/177/75 36/298/10
f 55/79/67 108/127/93 62/180/16
f 110/279/58 76/66/20 69/182/19
f 19/25/24 76/66/20 74/110/84
