# Blender v2.93.4 OBJ File: 'hexagon.blend'
# www.blender.org
mtllib sample-neon.mtl
o Circle.002_Circle.011
v 0.194349 -0.057092 1.464722
v 0.972167 0.323959 1.620286
v 1.594420 0.323959 0.998032
v 1.438857 -0.057092 0.220214
v 0.661039 -0.438143 0.064651
v 0.038786 -0.438143 0.686905
v 0.300133 -0.057092 1.358939
v 0.945721 0.259180 1.488057
v 1.462192 0.259180 0.971586
v 1.333074 -0.057092 0.325998
v 0.687485 -0.373364 0.196880
v 0.171015 -0.373364 0.713351
v 0.207559 0.040108 1.372149
v 0.919262 0.388770 1.514489
v 1.488624 0.388769 0.945127
v 1.346284 0.040108 0.233424
v 0.634581 -0.308554 0.091084
v 0.065219 -0.308554 0.660446
vt 0.000000 0.000000
vt 0.000000 0.000000
vt 0.000000 0.000000
vt 0.000000 0.000000
vt 0.000000 0.000000
vt 0.000000 0.000000
vt 0.000000 0.000000
vt 0.000000 0.000000
vt 0.000000 0.000000
vt 0.000000 0.000000
vt 0.000000 0.000000
vt 0.000000 0.000000
vt 0.000000 0.000000
vt 0.000000 0.000000
vt 0.000000 0.000000
vt 0.000000 0.000000
vt 0.000000 0.000000
vt 0.000000 0.000000
vn 0.3536 -0.8660 0.3536
vn 0.0885 0.2164 -0.9723
vn 0.3536 0.8660 0.3536
vn -0.4419 0.6494 0.6188
vn -0.7071 -0.0001 -0.7071
vn 0.6188 0.6494 -0.4419
vn -0.9723 0.2164 0.0885
usemtl Material.003
s off
f 6/1/1 12/2/1 7/3/1 1/4/1
f 4/5/1 10/6/1 11/7/1 5/8/1
f 2/9/1 8/10/1 9/11/1 3/12/1
f 5/8/1 11/7/1 12/2/1 6/1/1
f 3/12/1 9/11/1 10/6/1 4/5/1
f 1/4/1 7/3/1 8/10/1 2/9/1
f 8/10/2 7/3/2 13/13/2 14/14/2
f 4/5/2 5/8/2 17/15/2 16/16/2
f 12/2/3 11/7/3 17/15/3 18/17/3
f 1/4/4 2/9/4 14/14/4 13/13/4
f 9/11/5 8/10/5 14/14/5 15/18/5
f 5/8/5 6/1/5 18/17/5 17/15/5
f 7/3/6 12/2/6 18/17/6 13/13/6
f 2/9/3 3/12/3 15/18/3 14/14/3
f 10/6/7 9/11/7 15/18/7 16/16/7
f 6/1/7 1/4/7 13/13/7 18/17/7
f 3/12/6 4/5/6 16/16/6 15/18/6
f 11/7/4 10/6/4 16/16/4 17/15/4
o Circle.001_Circle.014
v -0.194668 -0.057092 -1.402972
v -0.972485 0.323959 -1.558535
v -1.594739 0.323959 -0.936281
v -1.439175 -0.057092 -0.158464
v -0.661358 -0.438143 -0.002901
v -0.039104 -0.438143 -0.625155
v -0.300451 -0.057092 -1.297189
v -0.946040 0.259180 -1.426306
v -1.462510 0.259180 -0.909835
v -1.333392 -0.057092 -0.264247
v -0.687804 -0.373364 -0.135130
v -0.171333 -0.373364 -0.651600
v -0.207878 0.040108 -1.310399
v -0.919581 0.388770 -1.452739
v -1.488943 0.388769 -0.883376
v -1.346602 0.040108 -0.171674
v -0.634899 -0.308554 -0.029333
v -0.065537 -0.308554 -0.598696
vt 0.000000 0.000000
vt 0.000000 0.000000
vt 0.000000 0.000000
vt 0.000000 0.000000
vt 0.000000 0.000000
vt 0.000000 0.000000
vt 0.000000 0.000000
vt 0.000000 0.000000
vt 0.000000 0.000000
vt 0.000000 0.000000
vt 0.000000 0.000000
vt 0.000000 0.000000
vt 0.000000 0.000000
vt 0.000000 0.000000
vt 0.000000 0.000000
vt 0.000000 0.000000
vt 0.000000 0.000000
vt 0.000000 0.000000
vn -0.3536 -0.8660 -0.3536
vn -0.0885 0.2164 0.9723
vn -0.3536 0.8660 -0.3536
vn 0.4419 0.6494 -0.6188
vn 0.7071 -0.0001 0.7071
vn -0.6188 0.6494 0.4419
vn 0.9723 0.2164 -0.0885
usemtl Material.006
s off
f 24/19/8 30/20/8 25/21/8 19/22/8
f 22/23/8 28/24/8 29/25/8 23/26/8
f 20/27/8 26/28/8 27/29/8 21/30/8
f 23/26/8 29/25/8 30/20/8 24/19/8
f 21/30/8 27/29/8 28/24/8 22/23/8
f 19/22/8 25/21/8 26/28/8 20/27/8
f 26/28/9 25/21/9 31/31/9 32/32/9
f 22/23/9 23/26/9 35/33/9 34/34/9
f 30/20/10 29/25/10 35/33/10 36/35/10
f 19/22/11 20/27/11 32/32/11 31/31/11
f 27/29/12 26/28/12 32/32/12 33/36/12
f 23/26/12 24/19/12 36/35/12 35/33/12
f 25/21/13 30/20/13 36/35/13 31/31/13
f 20/27/10 21/30/10 33/36/10 32/32/10
f 28/24/14 27/29/14 33/36/14 34/34/14
f 24/19/14 19/22/14 31/31/14 36/35/14
f 21/30/13 22/23/13 34/34/13 33/36/13
f 29/25/11 28/24/11 34/34/11 35/33/11
o Circle.003_Circle.015
v -1.428837 -0.057092 0.230553
v -1.584400 0.323959 1.008371
v -0.962146 0.323959 1.630625
v -0.184329 -0.057092 1.475061
v -0.028766 -0.438143 0.697243
v -0.651019 -0.438143 0.074990
v -1.323053 -0.057092 0.336337
v -1.452171 0.259180 0.981925
v -0.935700 0.259180 1.498395
v -0.290112 -0.057092 1.369277
v -0.160994 -0.373364 0.723689
v -0.677465 -0.373364 0.207219
v -1.336263 0.040108 0.243763
v -1.478604 0.388770 0.955466
v -0.909241 0.388769 1.524828
v -0.197539 0.040108 1.382488
v -0.055198 -0.308554 0.670785
v -0.624561 -0.308554 0.101423
vt 0.000000 0.000000
vt 0.000000 0.000000
vt 0.000000 0.000000
vt 0.000000 0.000000
vt 0.000000 0.000000
vt 0.000000 0.000000
vt 0.000000 0.000000
vt 0.000000 0.000000
vt 0.000000 0.000000
vt 0.000000 0.000000
vt 0.000000 0.000000
vt 0.000000 0.000000
vt 0.000000 0.000000
vt 0.000000 0.000000
vt 0.000000 0.000000
vt 0.000000 0.000000
vt 0.000000 0.000000
vt 0.000000 0.000000
vn -0.3536 -0.8660 0.3536
vn 0.9723 0.2164 0.0885
vn -0.3536 0.8660 0.3536
vn -0.6188 0.6494 -0.4419
vn 0.7071 -0.0001 -0.7071
vn 0.4419 0.6494 0.6188
vn -0.0885 0.2164 -0.9723
usemtl Material.007
s off
f 42/37/15 48/38/15 43/39/15 37/40/15
f 40/41/15 46/42/15 47/43/15 41/44/15
f 38/45/15 44/46/15 45/47/15 39/48/15
f 41/44/15 47/43/15 48/38/15 42/37/15
f 39/48/15 45/47/15 46/42/15 40/41/15
f 37/40/15 43/39/15 44/46/15 38/45/15
f 44/46/16 43/39/16 49/49/16 50/50/16
f 40/41/16 41/44/16 53/51/16 52/52/16
f 48/38/17 47/43/17 53/51/17 54/53/17
f 37/40/18 38/45/18 50/50/18 49/49/18
f 45/47/19 44/46/19 50/50/19 51/54/19
f 41/44/19 42/37/19 54/53/19 53/51/19
f 43/39/20 48/38/20 54/53/20 49/49/20
f 38/45/17 39/48/17 51/54/17 50/50/17
f 46/42/21 45/47/21 51/54/21 52/52/21
f 42/37/21 37/40/21 49/49/21 54/53/21
f 39/48/20 40/41/20 52/52/20 51/54/20
f 47/43/18 46/42/18 52/52/18 53/51/18
o Circle.004_Circle.016
v 1.469873 -0.057092 -0.148125
v 1.625437 0.323959 -0.925943
v 1.003183 0.323959 -1.548196
v 0.225365 -0.057092 -1.392632
v 0.069802 -0.438143 -0.614815
v 0.692056 -0.438143 0.007438
v 1.364090 -0.057092 -0.253909
v 1.493208 0.259180 -0.899497
v 0.976737 0.259180 -1.415967
v 0.331149 -0.057092 -1.286849
v 0.202031 -0.373364 -0.641261
v 0.718502 -0.373364 -0.124791
v 1.377300 0.040108 -0.161335
v 1.519640 0.388770 -0.873038
v 0.950278 0.388769 -1.442400
v 0.238575 0.040108 -1.300059
v 0.096235 -0.308554 -0.588356
v 0.665597 -0.308554 -0.018995
vt 0.000000 0.000000
vt 0.000000 0.000000
vt 0.000000 0.000000
vt 0.000000 0.000000
vt 0.000000 0.000000
vt 0.000000 0.000000
vt 0.000000 0.000000
vt 0.000000 0.000000
vt 0.000000 0.000000
vt 0.000000 0.000000
vt 0.000000 0.000000
vt 0.000000 0.000000
vt 0.000000 0.000000
vt 0.000000 0.000000
vt 0.000000 0.000000
vt 0.000000 0.000000
vt 0.000000 0.000000
vt 0.000000 0.000000
vn 0.3536 -0.8660 -0.3536
vn -0.9723 0.2164 -0.0885
vn 0.3536 0.8660 -0.3536
vn 0.6188 0.6494 0.4419
vn -0.7071 -0.0001 0.7071
vn -0.4419 0.6494 -0.6188
vn 0.0885 0.2164 0.9723
usemtl Material.008
s off
f 60/55/22 66/56/22 61/57/22 55/58/22
f 58/59/22 64/60/22 65/61/22 59/62/22
f 56/63/22 62/64/22 63/65/22 57/66/22
f 59/62/22 65/61/22 66/56/22 60/55/22
f 57/66/22 63/65/22 64/60/22 58/59/22
f 55/58/22 61/57/22 62/64/22 56/63/22
f 62/64/23 61/57/23 67/67/23 68/68/23
f 58/59/23 59/62/23 71/69/23 70/70/23
f 66/56/24 65/61/24 71/69/24 72/71/24
f 55/58/25 56/63/25 68/68/25 67/67/25
f 63/65/26 62/64/26 68/68/26 69/72/26
f 59/62/26 60/55/26 72/71/26 71/69/26
f 61/57/27 66/56/27 72/71/27 67/67/27
f 56/63/24 57/66/24 69/72/24 68/68/24
f 64/60/28 63/65/28 69/72/28 70/70/28
f 60/55/28 55/58/28 67/67/28 72/71/28
f 57/66/27 58/59/27 70/70/27 69/72/27
f 65/61/25 64/60/25 70/70/25 71/69/25
