# Blender v2.93.4 OBJ File: 'trapaziod.blend'
# www.blender.org
mtllib trapezoid.mtl
o Trapezoid_Cube.001
v -0.100000 0.108397 -0.008660
v -0.100000 0.118397 0.008660
v -0.149785 0.281603 -0.108660
v -0.149785 0.291603 -0.091340
v 0.100000 0.108397 -0.008660
v 0.100000 0.118397 0.008660
v 0.149785 0.281603 -0.108660
v 0.149785 0.291603 -0.091340
v 0.090000 0.125718 -0.018660
v -0.123353 0.264282 -0.098660
v 0.123353 0.264282 -0.098660
v -0.090000 0.125718 -0.018660
v -0.090000 0.135718 -0.001340
v 0.123353 0.274282 -0.081340
v -0.123353 0.274282 -0.081340
v 0.090000 0.135718 -0.001340
vt 0.625000 0.000000
vt 0.375000 0.250000
vt 0.375000 0.000000
vt 0.625000 0.250000
vt 0.375000 0.500000
vt 0.625000 0.500000
vt 0.375000 0.750000
vt 0.625000 0.750000
vt 0.375000 1.000000
vt 0.125000 0.500000
vt 0.150000 0.525000
vt 0.125000 0.750000
vt 0.350000 0.725000
vt 0.875000 0.750000
vt 0.650000 0.725000
vt 0.850000 0.725000
vt 0.850000 0.525000
vt 0.650000 0.525000
vt 0.468750 0.000000
vt 0.531250 0.250000
vt 0.531250 0.000000
vt 0.468750 0.250000
vt 0.531250 0.500000
vt 0.468750 0.750000
vt 0.468750 0.500000
vt 0.468750 1.000000
vt 0.531250 0.750000
vt 0.625000 1.000000
vt 0.150000 0.725000
vt 0.350000 0.525000
vt 0.875000 0.500000
vt 0.531250 1.000000
vn -0.9704 -0.2092 0.1208
vn 0.0000 0.8660 -0.5000
vn 0.9704 -0.2092 0.1208
vn 0.0000 -0.8660 0.5000
vn 0.0000 -0.5000 -0.8660
vn 0.0000 0.5000 0.8660
vn 0.9790 0.1767 -0.1020
vn -0.9790 0.1767 -0.1020
usemtl None
s off
f 2/1/1 3/2/1 1/3/1
f 4/4/2 7/5/2 3/2/2
f 8/6/3 5/7/3 7/5/3
f 6/8/4 1/9/4 5/7/4
f 3/10/5 7/5/5 10/11/5
f 1/12/5 9/13/5 5/7/5
f 2/14/6 16/15/6 13/16/6
f 8/6/6 15/17/6 14/18/6
f 12/19/7 15/20/7 13/21/7
f 10/22/4 14/23/4 15/20/4
f 9/24/8 14/23/8 11/25/8
f 12/26/2 16/27/2 9/24/2
f 2/1/1 4/4/1 3/2/1
f 4/4/2 8/6/2 7/5/2
f 8/6/3 6/8/3 5/7/3
f 6/8/4 2/28/4 1/9/4
f 10/11/5 12/29/5 1/12/5
f 7/5/5 5/7/5 11/30/5
f 5/7/5 9/13/5 11/30/5
f 10/11/5 1/12/5 3/10/5
f 7/5/5 11/30/5 10/11/5
f 1/12/5 12/29/5 9/13/5
f 15/17/6 4/31/6 2/14/6
f 2/14/6 6/8/6 16/15/6
f 13/16/6 15/17/6 2/14/6
f 16/15/6 6/8/6 14/18/6
f 6/8/6 8/6/6 14/18/6
f 8/6/6 4/31/6 15/17/6
f 12/19/7 10/22/7 15/20/7
f 10/22/4 11/25/4 14/23/4
f 9/24/8 16/27/8 14/23/8
f 12/26/2 13/32/2 16/27/2
o Cube
v -0.080000 -0.260292 0.145863
v -0.100000 -0.118871 0.004442
v -0.080000 -0.274434 0.131721
v -0.100000 -0.133013 -0.009701
v 0.080000 -0.260292 0.145863
v 0.100000 -0.118871 0.004442
v 0.080000 -0.274434 0.131721
v 0.100000 -0.133013 -0.009701
v -0.064000 -0.260292 0.117579
v -0.080000 -0.147155 0.004442
v 0.080000 -0.147155 0.004442
v 0.064000 -0.260292 0.117579
v -0.080000 -0.133013 0.018584
v 0.064000 -0.246150 0.131721
v 0.080000 -0.133013 0.018584
v -0.064000 -0.246150 0.131721
v -0.080000 -0.147155 0.004442
v -0.080000 -0.147155 0.004442
v 0.080000 -0.147155 0.004442
v 0.080000 -0.147155 0.004442
v -0.064000 -0.260292 0.117579
v 0.064000 -0.260292 0.117579
v -0.080000 -0.133013 0.018584
v -0.080000 -0.133013 0.018584
v 0.080000 -0.133013 0.018584
v 0.080000 -0.133013 0.018584
v -0.064000 -0.246150 0.131721
v 0.064000 -0.246150 0.131721
vt 0.625000 0.000000
vt 0.375000 0.250000
vt 0.375000 0.000000
vt 0.400000 0.475000
vt 0.400000 0.475000
vt 0.400000 0.275000
vt 0.375000 0.500000
vt 0.600000 0.275000
vt 0.600000 0.475000
vt 0.600000 0.275000
vt 0.625000 0.500000
vt 0.625000 0.250000
vt 0.625000 0.750000
vt 0.375000 0.750000
vt 0.375000 1.000000
vt 0.400000 0.975000
vt 0.400000 0.975000
vt 0.400000 0.775000
vt 0.600000 0.775000
vt 0.600000 0.975000
vt 0.600000 0.775000
vt 0.600000 0.975000
vt 0.125000 0.750000
vt 0.125000 0.500000
vt 0.875000 0.500000
vt 0.000000 0.000000
vt 0.000000 0.000000
vt 0.000000 0.000000
vt 0.000000 0.000000
vt 0.000000 0.000000
vt 0.000000 0.000000
vt 0.000000 0.000000
vt 0.000000 0.000000
vt 0.600000 0.475000
vt 0.600000 0.275000
vt 0.400000 0.275000
vt 0.600000 0.475000
vt 0.600000 0.975000
vt 0.600000 0.775000
vt 0.625000 1.000000
vt 0.400000 0.775000
vt 0.875000 0.750000
vn -0.9950 -0.0704 0.0704
vn 0.0000 -0.0639 -0.9980
vn 0.0000 -0.7071 -0.7071
vn 0.0000 -1.0000 0.0000
vn 0.9950 -0.0704 0.0704
vn 0.0000 0.7071 0.7071
vn 0.0000 0.0000 1.0000
vn 0.0000 -0.7071 0.7071
vn 0.0000 0.7071 -0.7071
vn 0.0000 -0.8677 -0.4970
vn 0.0000 0.0000 -1.0000
vn 0.8321 0.0000 -0.5547
vn -0.7682 0.5121 -0.3841
vn 0.0000 -0.1270 0.9919
vn 0.4903 -0.8716 0.0000
vn -0.6839 -0.7295 0.0000
usemtl None
s off
f 18/33/9 19/34/9 17/35/9
f 28/36/10 38/37/10 37/38/10
f 23/39/11 19/34/11 38/37/11
f 26/40/12 36/41/12 33/42/12
f 24/43/11 26/40/11 20/44/11
f 23/39/13 22/45/13 21/46/13
f 17/47/14 21/46/14 43/48/14
f 32/49/15 43/48/15 44/50/15
f 31/51/15 39/52/15 42/53/15
f 22/45/14 29/54/14 31/51/14
f 23/39/16 17/55/16 19/56/16
f 20/57/17 22/45/17 24/43/17
f 34/58/17 42/59/17 36/60/17
f 40/61/9 37/62/9 43/63/9
f 37/62/16 44/64/16 43/63/16
f 42/59/13 38/65/13 36/60/13
f 18/33/9 20/44/9 19/34/9
f 28/36/18 36/41/18 35/66/18
f 37/38/19 34/67/19 33/42/19
f 37/38/20 33/42/20 25/68/20
f 28/36/21 35/66/21 38/37/21
f 37/38/22 25/68/22 28/36/22
f 36/41/23 27/69/23 24/43/23
f 20/44/24 26/40/24 33/42/24
f 20/44/19 33/42/19 34/67/19
f 35/66/19 36/41/19 24/43/19
f 38/37/11 35/66/11 23/39/11
f 35/66/11 24/43/11 23/39/11
f 19/34/11 20/44/11 34/67/11
f 19/34/11 34/67/11 37/38/11
f 19/34/11 37/38/11 38/37/11
f 26/40/12 27/69/12 36/41/12
f 24/43/11 27/69/11 26/40/11
f 23/39/13 24/43/13 22/45/13
f 40/70/15 39/52/15 29/54/15
f 22/45/15 31/51/15 42/53/15
f 22/45/15 42/53/15 41/71/15
f 40/70/15 29/54/15 18/72/15
f 43/48/14 40/70/14 17/47/14
f 40/70/14 18/72/14 17/47/14
f 21/46/14 22/45/14 41/71/14
f 21/46/14 41/71/14 44/50/14
f 21/46/14 44/50/14 43/48/14
f 41/71/15 42/53/15 30/73/15
f 32/49/15 39/52/15 43/48/15
f 39/52/15 40/70/15 43/48/15
f 44/50/15 41/71/15 30/73/15
f 44/50/15 30/73/15 32/49/15
f 31/51/15 29/54/15 39/52/15
f 22/45/14 18/72/14 29/54/14
f 23/39/16 21/46/16 17/55/16
f 20/57/17 18/74/17 22/45/17
f 34/58/17 40/61/17 42/59/17
f 40/61/9 34/58/9 37/62/9
f 37/62/16 38/65/16 44/64/16
f 42/59/13 44/64/13 38/65/13
