# Blender v2.93.4 OBJ File: 'trapaziod.blend'
# www.blender.org
mtllib trapezoid-middle.mtl
o Trapezoid-middle_Cube.003
v 0.000000 0.172929 -0.087071
v 0.000000 0.187071 -0.072929
v 0.000000 0.172929 -0.087071
v 0.000000 0.187071 -0.072929
v 0.000000 0.172929 -0.087071
v 0.000000 0.187071 -0.072929
v 0.000000 0.172929 -0.087071
v 0.000000 0.187071 -0.072929
v 0.090000 0.116360 -0.030503
v -0.140000 0.229497 -0.143640
v 0.140000 0.229497 -0.143640
v -0.090000 0.116360 -0.030503
v -0.090000 0.130503 -0.016360
v 0.140000 0.243640 -0.129497
v -0.140000 0.243640 -0.129497
v 0.090000 0.130503 -0.016360
vt 0.625000 0.000000
vt 0.375000 0.250000
vt 0.375000 0.000000
vt 0.625000 0.250000
vt 0.375000 0.500000
vt 0.625000 0.500000
vt 0.375000 0.750000
vt 0.625000 0.750000
vt 0.375000 1.000000
vt 0.125000 0.500000
vt 0.150000 0.525000
vt 0.125000 0.750000
vt 0.350000 0.725000
vt 0.875000 0.750000
vt 0.650000 0.725000
vt 0.850000 0.725000
vt 0.850000 0.525000
vt 0.650000 0.525000
vt 0.468750 0.000000
vt 0.531250 0.250000
vt 0.531250 0.000000
vt 0.468750 0.250000
vt 0.531250 0.500000
vt 0.468750 0.750000
vt 0.468750 0.500000
vt 0.468750 1.000000
vt 0.531250 0.750000
vt 0.625000 1.000000
vt 0.150000 0.725000
vt 0.350000 0.525000
vt 0.875000 0.500000
vt 0.531250 1.000000
vn 0.0000 0.0000 1.0000
vn 0.0000 -0.7071 -0.7071
vn 0.9545 0.2109 -0.2109
vn 0.0000 -0.7071 0.7071
vn -0.9545 0.2109 -0.2109
vn 0.0000 0.7071 -0.7071
vn -0.0000 0.7071 0.7071
usemtl None
s off
f 2/1/1 3/2/1 1/3/1
f 4/4/1 7/5/1 3/2/1
f 8/6/1 5/7/1 7/5/1
f 6/8/1 1/9/1 5/7/1
f 3/10/1 7/5/1 10/11/1
f 1/12/1 9/13/1 5/7/1
f 2/14/2 16/15/2 13/16/2
f 8/6/2 15/17/2 14/18/2
f 12/19/3 15/20/3 13/21/3
f 10/22/4 14/23/4 15/20/4
f 9/24/5 14/23/5 11/25/5
f 12/26/6 16/27/6 9/24/6
f 2/1/1 4/4/1 3/2/1
f 4/4/1 8/6/1 7/5/1
f 8/6/1 6/8/1 5/7/1
f 6/8/1 2/28/1 1/9/1
f 10/11/7 12/29/7 1/12/7
f 7/5/1 5/7/1 11/30/1
f 5/7/7 9/13/7 11/30/7
f 10/11/1 1/12/1 3/10/1
f 7/5/7 11/30/7 10/11/7
f 1/12/7 12/29/7 9/13/7
f 15/17/1 4/31/1 2/14/1
f 2/14/1 6/8/1 16/15/1
f 13/16/2 15/17/2 2/14/2
f 16/15/2 6/8/2 14/18/2
f 6/8/1 8/6/1 14/18/1
f 8/6/1 4/31/1 15/17/1
f 12/19/3 10/22/3 15/20/3
f 10/22/4 11/25/4 14/23/4
f 9/24/5 16/27/5 14/23/5
f 12/26/6 13/32/6 16/27/6
