# Blender v2.93.4 OBJ File: 'trapaziod.blend'
# www.blender.org
mtllib trapezoid-full.mtl
o Trapezioed-full_Cube.004
v -0.100000 0.102218 -0.016360
v -0.100000 0.116360 -0.002218
v -0.170000 0.243640 -0.157782
v -0.170000 0.257782 -0.143640
v 0.100000 0.102218 -0.016360
v 0.100000 0.116360 -0.002218
v 0.170000 0.243640 -0.157782
v 0.170000 0.257782 -0.143640
v 0.000000 0.172929 -0.087071
v 0.000000 0.187071 -0.072929
vt 0.625000 0.000000
vt 0.375000 0.250000
vt 0.375000 0.000000
vt 0.625000 0.250000
vt 0.375000 0.500000
vt 0.625000 0.500000
vt 0.375000 0.750000
vt 0.625000 0.750000
vt 0.375000 1.000000
vt 0.125000 0.500000
vt 0.150000 0.525000
vt 0.125000 0.750000
vt 0.350000 0.725000
vt 0.625000 1.000000
vt 0.350000 0.525000
vt 0.850000 0.525000
vt 0.875000 0.500000
vt 0.875000 0.750000
vt 0.650000 0.725000
vt 0.650000 0.525000
vn -0.9439 -0.2336 0.2336
vn 0.0000 0.7071 -0.7071
vn 0.9439 -0.2336 0.2336
vn 0.0000 -0.7071 0.7071
vn 0.0000 -0.7071 -0.7071
vn 0.0000 0.7071 0.7071
usemtl None
s off
f 2/1/1 3/2/1 1/3/1
f 4/4/2 7/5/2 3/2/2
f 8/6/3 5/7/3 7/5/3
f 6/8/4 1/9/4 5/7/4
f 3/10/5 7/5/5 9/11/5
f 1/12/5 9/13/5 5/7/5
f 2/1/1 4/4/1 3/2/1
f 4/4/2 8/6/2 7/5/2
f 8/6/3 6/8/3 5/7/3
f 6/8/4 2/14/4 1/9/4
f 7/5/5 5/7/5 9/15/5
f 9/11/5 1/12/5 3/10/5
f 10/16/6 4/17/6 2/18/6
f 2/18/6 6/8/6 10/19/6
f 6/8/6 8/6/6 10/20/6
f 8/6/6 4/17/6 10/16/6
l 9 10
