# Blender v2.93.4 OBJ File: 'tron-block.blend'
# www.blender.org
mtllib tron-tree.mtl
o Dark-Green_Cube.001
v -1.000000 2.000000 1.000000
v -1.000000 4.000000 1.000000
v -1.000000 2.000000 -1.000000
v -1.000000 4.000000 -1.000000
v 1.000000 2.000000 1.000000
v 1.000000 4.000000 1.000000
v 1.000000 2.000000 -1.000000
v 1.000000 4.000000 -1.000000
vn -1.0000 0.0000 0.0000
vn 0.0000 0.0000 -1.0000
vn 1.0000 0.0000 0.0000
vn 0.0000 0.0000 1.0000
vn 0.0000 -1.0000 0.0000
vn 0.0000 1.0000 0.0000
usemtl Dark-Green
s off
f 2//1 3//1 1//1
f 4//2 7//2 3//2
f 8//3 5//3 7//3
f 6//4 1//4 5//4
f 7//5 1//5 3//5
f 4//6 6//6 8//6
f 2//1 4//1 3//1
f 4//2 8//2 7//2
f 8//3 6//3 5//3
f 6//4 2//4 1//4
f 7//5 5//5 1//5
f 4//6 2//6 6//6
o Neon-Green_Cube
v -0.500000 3.000000 -1.000000
v 0.000000 3.500000 -1.000000
v 1.000000 3.000000 0.500000
v 1.000000 3.500000 0.000000
v 0.000000 2.000000 -0.500000
v -1.000000 2.500000 0.000000
v -0.500000 3.000000 1.000000
v 0.000000 3.500000 1.000000
v 0.000000 4.000000 0.500000
v 0.500000 4.000000 0.500000
v 0.500000 3.500000 1.000000
v -0.500000 2.500000 1.000000
v -1.000000 2.500000 0.500000
v -1.000000 2.500000 -0.500000
v 0.500000 2.000000 -0.500000
v -0.500000 2.000000 -0.500000
v 1.000000 3.500000 -0.500000
v 1.000000 2.500000 0.500000
v -0.500000 3.500000 -1.000000
v -0.500000 2.500000 -1.000000
v 0.500000 3.500000 -1.000000
v 1.000000 3.500000 0.500000
v -0.500000 3.500000 1.000000
v -0.500000 4.000000 0.500000
v 1.000000 3.000000 0.750000
v -1.000000 2.250000 0.000000
v -0.750000 3.000000 1.000000
v 0.000000 4.000000 0.750000
v -0.750000 3.000000 -1.000000
v 0.000000 3.750000 -1.000000
v 1.000000 3.750000 0.000000
v 0.000000 2.000000 -0.750000
v 0.000000 3.750000 1.000000
v 0.500000 4.000000 0.750000
v 0.750000 4.000000 0.500000
v 0.250000 4.000000 0.500000
v 0.250000 3.500000 1.000000
v 0.750000 3.500000 1.000000
v 0.500000 3.750000 1.000000
v -0.750000 2.500000 1.000000
v -0.500000 2.250000 1.000000
v -0.500000 2.750000 1.000000
v -1.000000 2.500000 0.250000
v -1.000000 2.500000 0.750000
v -1.000000 2.250000 0.500000
v -1.000000 2.500000 -0.750000
v -1.000000 2.500000 -0.250000
v -1.000000 2.250000 -0.500000
v 0.500000 2.000000 -0.750000
v 0.250000 2.000000 -0.500000
v 0.750000 2.000000 -0.500000
v -0.500000 2.000000 -0.750000
v -0.750000 2.000000 -0.500000
v -0.250000 2.000000 -0.500000
v 1.000000 3.500000 -0.250000
v 1.000000 3.750000 -0.500000
v 1.000000 2.500000 0.750000
v 1.000000 2.250000 0.500000
v 1.000000 2.750000 0.500000
v -0.250000 3.500000 -1.000000
v -0.750000 3.500000 -1.000000
v -0.500000 3.250000 -1.000000
v -0.500000 3.750000 -1.000000
v -0.750000 2.500000 -1.000000
v -0.500000 2.250000 -1.000000
v -0.500000 2.750000 -1.000000
v 0.750000 3.500000 -1.000000
v 0.250000 3.500000 -1.000000
v 0.500000 3.750000 -1.000000
v 1.000000 3.500000 0.750000
v 1.000000 3.500000 0.250000
v 1.000000 3.250000 0.500000
v 1.000000 3.750000 0.500000
v -0.750000 3.500000 1.000000
v -0.250000 3.500000 1.000000
v -0.500000 3.250000 1.000000
v -0.500000 3.750000 1.000000
v -0.500000 4.000000 0.750000
v -0.250000 4.000000 0.500000
v -0.750000 4.000000 0.500000
v -0.250000 4.000000 0.750000
v -0.250000 3.750000 1.000000
v -0.750000 3.250000 1.000000
v 1.000000 3.750000 0.250000
v 1.000000 3.250000 0.750000
v 0.250000 3.750000 -1.000000
v -0.750000 2.750000 -1.000000
v -0.750000 2.250000 -1.000000
v -0.750000 3.750000 -1.000000
v -0.750000 3.250000 -1.000000
v 1.000000 2.250000 0.750000
v -0.250000 2.000000 -0.750000
v -0.750000 2.000000 -0.750000
v 0.750000 2.000000 -0.750000
v 0.250000 2.000000 -0.750000
v -1.000000 2.250000 -0.250000
v -1.000000 2.250000 -0.750000
v -1.000000 2.250000 0.750000
v -1.000000 2.250000 0.250000
v -0.750000 2.250000 1.000000
v 0.750000 3.750000 1.000000
v 0.750000 4.000000 0.750000
v 0.250000 4.000000 0.750000
v 0.250000 3.750000 1.000000
v -0.750000 2.750000 1.000000
v 1.000000 3.750000 -0.250000
v 1.000000 2.750000 0.750000
v -0.250000 3.750000 -1.000000
v 0.750000 3.750000 -1.000000
v 1.000000 3.750000 0.750000
v -0.750000 3.750000 1.000000
v -0.750000 4.000000 0.750000
v 1.100000 3.750000 0.000000
v 1.100000 3.500000 0.000000
v 1.100000 3.500000 -0.250000
v 1.100000 3.750000 -0.500000
v 1.100000 3.500000 -0.500000
v 1.100000 2.750000 0.500000
v 1.100000 2.500000 0.500000
v 1.100000 3.500000 0.250000
v 1.100000 3.500000 0.500000
v 1.100000 3.250000 0.500000
v 1.100000 3.000000 0.500000
v 1.100000 3.750000 0.500000
v 1.100000 3.000000 0.750000
v 1.100000 2.500000 0.750000
v 1.100000 2.250000 0.500000
v 1.100000 3.500000 0.750000
v 1.100000 3.750000 0.250000
v 1.100000 3.250000 0.750000
v 1.100000 2.250000 0.750000
v 1.100000 3.750000 -0.250000
v 1.100000 2.750000 0.750000
v 1.100000 3.750000 0.750000
v 0.250000 4.100000 0.500000
v 0.500000 4.100000 0.500000
v -0.250000 4.100000 0.500000
v 0.000000 4.100000 0.500000
v -0.750000 4.100000 0.500000
v -0.500000 4.100000 0.500000
v 0.000000 4.100000 0.750000
v 0.500000 4.100000 0.750000
v 0.750000 4.100000 0.500000
v -0.500000 4.100000 0.750000
v -0.250000 4.100000 0.750000
v 0.750000 4.100000 0.750000
v 0.250000 4.100000 0.750000
v -0.750000 4.100000 0.750000
v 0.000000 3.750000 1.100000
v 0.000000 3.500000 1.100000
v 0.250000 3.500000 1.100000
v 0.750000 3.500000 1.100000
v 0.500000 3.500000 1.100000
v 0.500000 3.750000 1.100000
v -0.500000 2.750000 1.100000
v -0.500000 2.500000 1.100000
v -0.250000 3.500000 1.100000
v -0.500000 3.500000 1.100000
v -0.500000 3.250000 1.100000
v -0.500000 3.000000 1.100000
v -0.500000 3.750000 1.100000
v -0.750000 3.000000 1.100000
v -0.750000 2.500000 1.100000
v -0.500000 2.250000 1.100000
v -0.750000 3.500000 1.100000
v -0.250000 3.750000 1.100000
v -0.750000 3.250000 1.100000
v -0.750000 2.250000 1.100000
v 0.750000 3.750000 1.100000
v 0.250000 3.750000 1.100000
v -0.750000 2.750000 1.100000
v -0.750000 3.750000 1.100000
v -1.100000 2.500000 0.250000
v -1.100000 2.500000 0.000000
v -1.100000 2.500000 0.750000
v -1.100000 2.500000 0.500000
v -1.100000 2.500000 -0.250000
v -1.100000 2.500000 -0.500000
v -1.100000 2.250000 0.000000
v -1.100000 2.250000 0.500000
v -1.100000 2.500000 -0.750000
v -1.100000 2.250000 -0.500000
v -1.100000 2.250000 -0.250000
v -1.100000 2.250000 -0.750000
v -1.100000 2.250000 0.750000
v -1.100000 2.250000 0.250000
v -0.750000 3.000000 -1.100000
v -0.500000 3.000000 -1.100000
v 0.000000 3.750000 -1.100000
v 0.000000 3.500000 -1.100000
v -0.250000 3.500000 -1.100000
v -0.750000 3.500000 -1.100000
v -0.500000 3.500000 -1.100000
v -0.500000 3.250000 -1.100000
v -0.500000 3.750000 -1.100000
v -0.750000 2.500000 -1.100000
v -0.500000 2.500000 -1.100000
v -0.500000 2.750000 -1.100000
v 0.250000 3.500000 -1.100000
v 0.500000 3.500000 -1.100000
v 0.500000 3.750000 -1.100000
v -0.500000 2.250000 -1.100000
v 0.750000 3.500000 -1.100000
v 0.250000 3.750000 -1.100000
v -0.750000 2.750000 -1.100000
v -0.750000 2.250000 -1.100000
v -0.750000 3.750000 -1.100000
v -0.750000 3.250000 -1.100000
v -0.250000 3.750000 -1.100000
v 0.750000 3.750000 -1.100000
v 0.000000 1.900000 -0.750000
v 0.000000 1.900000 -0.500000
v 0.500000 1.900000 -0.750000
v 0.500000 1.900000 -0.500000
v 0.250000 1.900000 -0.500000
v 0.750000 1.900000 -0.500000
v -0.500000 1.900000 -0.750000
v -0.500000 1.900000 -0.500000
v -0.250000 1.900000 -0.500000
v -0.750000 1.900000 -0.500000
v -0.250000 1.900000 -0.750000
v -0.750000 1.900000 -0.750000
v 0.750000 1.900000 -0.750000
v 0.250000 1.900000 -0.750000
vn 0.0000 1.0000 0.0000
vn 0.0000 0.0000 1.0000
vn 1.0000 0.0000 0.0000
vn 0.0000 -1.0000 0.0000
vn -1.0000 0.0000 0.0000
vn 0.0000 0.0000 -1.0000
usemtl Neon-Green
s off
f 21//7 183//7 52//7
f 52//8 193//8 106//8
f 14//7 181//7 51//7
f 24//8 227//8 62//8
f 62//8 220//8 13//8
f 59//9 231//9 102//9
f 76//10 208//10 29//10
f 73//9 205//9 28//9
f 69//11 216//11 98//11
f 43//9 154//9 110//9
f 88//12 148//12 32//12
f 35//11 175//11 91//11
f 119//7 169//7 85//7
f 48//11 179//11 113//11
f 46//10 161//10 19//10
f 93//8 136//8 78//8
f 115//8 133//8 33//8
f 26//12 135//12 66//12
f 33//8 138//8 93//8
f 75//9 218//9 117//9
f 10//10 207//10 76//10
f 96//10 210//10 73//10
f 98//11 195//11 37//11
f 117//7 209//7 77//7
f 66//10 139//10 99//10
f 61//8 226//8 24//8
f 57//12 232//12 103//12
f 101//11 228//11 61//11
f 104//10 190//10 56//10
f 51//7 184//7 21//7
f 105//12 189//12 54//12
f 90//7 157//7 41//7
f 45//10 158//10 16//10
f 87//12 146//12 17//12
f 32//12 145//12 87//12
f 86//8 156//8 120//8
f 109//9 160//9 46//9
f 108//11 171//11 48//11
f 112//7 162//7 47//7
f 19//10 159//10 45//10
f 65//8 141//8 115//8
f 80//12 131//12 11//12
f 92//7 121//7 39//7
f 63//10 122//10 12//10
f 29//10 211//10 75//10
f 37//11 213//11 95//11
f 95//11 204//11 72//11
f 30//12 130//12 80//12
f 85//7 174//7 90//7
f 44//12 144//12 18//12
f 137//9 129//9 128//9
f 121//9 128//9 122//9
f 130//9 133//9 131//9
f 129//9 138//9 130//9
f 127//9 139//9 135//9
f 140//9 122//9 123//9
f 124//9 123//9 125//9
f 126//9 134//9 127//9
f 131//9 141//9 126//9
f 132//9 136//9 129//9
f 64//12 125//12 25//12
f 11//12 126//12 67//12
f 67//12 127//12 26//12
f 99//8 134//8 65//8
f 118//7 132//7 81//7
f 39//7 140//7 114//7
f 12//10 128//10 79//10
f 78//8 142//8 118//8
f 81//7 137//7 92//7
f 79//10 129//10 30//10
f 25//10 123//10 63//10
f 114//7 124//7 64//7
f 145//7 149//7 146//7
f 148//7 153//7 145//7
f 144//7 154//7 151//7
f 143//7 150//7 144//7
f 146//7 155//7 143//7
f 147//7 152//7 148//7
f 42//8 155//8 111//8
f 36//8 153//8 89//8
f 18//12 151//12 43//12
f 111//8 149//8 36//8
f 120//11 147//11 88//11
f 89//8 152//8 86//8
f 17//12 143//12 44//12
f 110//8 150//8 42//8
f 174//8 166//8 165//8
f 157//8 165//8 158//8
f 167//8 170//8 168//8
f 166//8 175//8 167//8
f 164//8 176//8 172//8
f 177//8 161//8 160//8
f 178//8 158//8 159//8
f 162//8 159//8 161//8
f 163//8 171//8 164//8
f 168//8 179//8 163//8
f 169//8 173//8 166//8
f 20//9 172//9 49//9
f 113//11 170//11 35//11
f 16//10 165//10 83//10
f 82//11 180//11 119//11
f 91//11 173//11 82//11
f 83//10 166//10 31//10
f 15//9 163//9 50//9
f 50//9 164//9 20//9
f 31//9 167//9 84//9
f 84//9 168//9 15//9
f 49//10 176//10 108//10
f 47//7 177//7 109//7
f 41//7 178//7 112//7
f 181//11 187//11 194//11
f 183//11 188//11 193//11
f 185//11 190//11 191//11
f 182//11 191//11 187//11
f 186//11 192//11 190//11
f 184//11 194//11 188//11
f 34//10 191//10 104//10
f 107//10 187//10 34//10
f 53//10 194//10 107//10
f 54//7 186//7 22//7
f 106//10 188//10 53//10
f 55//7 182//7 14//7
f 22//7 185//7 55//7
f 56//10 192//10 105//10
f 200//12 202//12 216//12
f 204//12 210//12 214//12
f 195//12 206//12 213//12
f 212//12 208//12 207//12
f 197//12 207//12 198//12
f 213//12 205//12 204//12
f 215//12 201//12 200//12
f 216//12 196//12 195//12
f 217//12 198//12 199//12
f 203//12 199//12 201//12
f 209//12 211//12 208//12
f 71//7 215//7 97//7
f 38//7 217//7 116//7
f 74//9 196//9 9//9
f 77//7 212//7 94//7
f 28//9 206//9 74//9
f 27//10 199//10 68//10
f 116//7 203//7 71//7
f 68//10 198//10 10//10
f 97//11 200//11 69//11
f 94//7 197//7 38//7
f 72//11 214//11 96//11
f 70//9 201//9 27//9
f 9//9 202//9 70//9
f 221//10 223//10 232//10
f 225//10 228//10 230//10
f 219//10 227//10 229//10
f 229//10 226//10 225//10
f 231//10 222//10 221//10
f 232//10 220//10 219//10
f 102//12 221//12 57//12
f 60//12 230//12 101//12
f 58//8 222//8 23//8
f 13//8 223//8 58//8
f 23//8 224//8 59//8
f 100//12 225//12 60//12
f 40//12 229//12 100//12
f 103//12 219//12 40//12
f 21//9 52//9 106//9
f 29//8 117//8 77//8
f 115//11 33//11 11//11
f 20//12 49//12 48//12
f 23//7 59//7 102//7
f 18//10 110//10 42//10
f 21//7 184//7 183//7
f 52//8 183//8 193//8
f 14//7 182//7 181//7
f 24//8 226//8 227//8
f 62//8 227//8 220//8
f 59//9 224//9 231//9
f 76//10 207//10 208//10
f 73//9 210//9 205//9
f 69//11 200//11 216//11
f 43//9 151//9 154//9
f 88//12 147//12 148//12
f 35//11 170//11 175//11
f 119//7 180//7 169//7
f 48//11 171//11 179//11
f 46//10 160//10 161//10
f 93//8 138//8 136//8
f 115//8 141//8 133//8
f 26//12 127//12 135//12
f 33//8 133//8 138//8
f 75//9 211//9 218//9
f 10//10 198//10 207//10
f 96//10 214//10 210//10
f 98//11 216//11 195//11
f 117//7 218//7 209//7
f 66//10 135//10 139//10
f 61//8 228//8 226//8
f 57//12 221//12 232//12
f 101//11 230//11 228//11
f 104//10 191//10 190//10
f 51//7 181//7 184//7
f 105//12 192//12 189//12
f 90//7 174//7 157//7
f 45//10 159//10 158//10
f 87//12 145//12 146//12
f 32//12 148//12 145//12
f 86//8 152//8 156//8
f 109//9 177//9 160//9
f 108//11 176//11 171//11
f 112//7 178//7 162//7
f 19//10 161//10 159//10
f 65//8 134//8 141//8
f 80//12 130//12 131//12
f 92//7 137//7 121//7
f 63//10 123//10 122//10
f 29//10 208//10 211//10
f 37//11 195//11 213//11
f 95//11 213//11 204//11
f 30//12 129//12 130//12
f 85//7 169//7 174//7
f 44//12 143//12 144//12
f 137//9 132//9 129//9
f 121//9 137//9 128//9
f 130//9 138//9 133//9
f 129//9 136//9 138//9
f 127//9 134//9 139//9
f 140//9 121//9 122//9
f 124//9 140//9 123//9
f 126//9 141//9 134//9
f 131//9 133//9 141//9
f 132//9 142//9 136//9
f 64//12 124//12 125//12
f 11//12 131//12 126//12
f 67//12 126//12 127//12
f 99//8 139//8 134//8
f 118//7 142//7 132//7
f 39//7 121//7 140//7
f 12//10 122//10 128//10
f 78//8 136//8 142//8
f 81//7 132//7 137//7
f 79//10 128//10 129//10
f 25//10 125//10 123//10
f 114//7 140//7 124//7
f 145//7 153//7 149//7
f 148//7 152//7 153//7
f 144//7 150//7 154//7
f 143//7 155//7 150//7
f 146//7 149//7 155//7
f 147//7 156//7 152//7
f 42//8 150//8 155//8
f 36//8 149//8 153//8
f 18//12 144//12 151//12
f 111//8 155//8 149//8
f 120//11 156//11 147//11
f 89//8 153//8 152//8
f 17//12 146//12 143//12
f 110//8 154//8 150//8
f 174//8 169//8 166//8
f 157//8 174//8 165//8
f 167//8 175//8 170//8
f 166//8 173//8 175//8
f 164//8 171//8 176//8
f 177//8 162//8 161//8
f 178//8 157//8 158//8
f 162//8 178//8 159//8
f 163//8 179//8 171//8
f 168//8 170//8 179//8
f 169//8 180//8 173//8
f 20//9 164//9 172//9
f 113//11 179//11 170//11
f 16//10 158//10 165//10
f 82//11 173//11 180//11
f 91//11 175//11 173//11
f 83//10 165//10 166//10
f 15//9 168//9 163//9
f 50//9 163//9 164//9
f 31//9 166//9 167//9
f 84//9 167//9 168//9
f 49//10 172//10 176//10
f 47//7 162//7 177//7
f 41//7 157//7 178//7
f 181//11 182//11 187//11
f 183//11 184//11 188//11
f 185//11 186//11 190//11
f 182//11 185//11 191//11
f 186//11 189//11 192//11
f 184//11 181//11 194//11
f 34//10 187//10 191//10
f 107//10 194//10 187//10
f 53//10 188//10 194//10
f 54//7 189//7 186//7
f 106//10 193//10 188//10
f 55//7 185//7 182//7
f 22//7 186//7 185//7
f 56//10 190//10 192//10
f 200//12 201//12 202//12
f 204//12 205//12 210//12
f 195//12 196//12 206//12
f 212//12 209//12 208//12
f 197//12 212//12 207//12
f 213//12 206//12 205//12
f 215//12 203//12 201//12
f 216//12 202//12 196//12
f 217//12 197//12 198//12
f 203//12 217//12 199//12
f 209//12 218//12 211//12
f 71//7 203//7 215//7
f 38//7 197//7 217//7
f 74//9 206//9 196//9
f 77//7 209//7 212//7
f 28//9 205//9 206//9
f 27//10 201//10 199//10
f 116//7 217//7 203//7
f 68//10 199//10 198//10
f 97//11 215//11 200//11
f 94//7 212//7 197//7
f 72//11 204//11 214//11
f 70//9 202//9 201//9
f 9//9 196//9 202//9
f 221//10 222//10 223//10
f 225//10 226//10 228//10
f 219//10 220//10 227//10
f 229//10 227//10 226//10
f 231//10 224//10 222//10
f 232//10 223//10 220//10
f 102//12 231//12 221//12
f 60//12 225//12 230//12
f 58//8 223//8 222//8
f 13//8 220//8 223//8
f 23//8 222//8 224//8
f 100//12 229//12 225//12
f 40//12 219//12 229//12
f 103//12 232//12 219//12
f 56//9 105//9 54//9
f 22//9 55//9 104//9
f 55//9 14//9 104//9
f 56//9 54//9 22//9
f 107//9 34//9 14//9
f 34//9 104//9 14//9
f 104//9 56//9 22//9
f 14//9 51//9 107//9
f 51//9 21//9 107//9
f 106//9 53//9 21//9
f 53//9 107//9 21//9
f 72//8 96//8 73//8
f 28//8 74//8 95//8
f 74//8 9//8 95//8
f 72//8 73//8 28//8
f 98//8 37//8 9//8
f 37//8 95//8 9//8
f 95//8 72//8 28//8
f 9//8 70//8 98//8
f 70//8 27//8 98//8
f 97//8 69//8 71//8
f 69//8 98//8 27//8
f 71//8 69//8 27//8
f 27//8 68//8 71//8
f 68//8 10//8 116//8
f 71//8 68//8 116//8
f 94//8 38//8 76//8
f 38//8 116//8 10//8
f 94//8 76//8 29//8
f 10//8 76//8 38//8
f 77//8 94//8 29//8
f 29//8 75//8 117//8
f 64//11 25//11 63//11
f 12//11 79//11 39//11
f 79//11 30//11 92//11
f 12//11 39//11 114//11
f 64//11 63//11 114//11
f 63//11 12//11 114//11
f 92//11 39//11 79//11
f 30//11 80//11 78//11
f 80//11 11//11 93//11
f 30//11 78//11 118//11
f 118//11 81//11 30//11
f 81//11 92//11 30//11
f 11//11 67//11 115//11
f 67//11 26//11 65//11
f 65//11 26//11 99//11
f 26//11 66//11 99//11
f 78//11 80//11 93//11
f 33//11 93//11 11//11
f 65//11 115//11 67//11
f 112//12 47//12 45//12
f 47//12 109//12 19//12
f 45//12 47//12 19//12
f 109//12 46//12 19//12
f 45//12 16//12 41//12
f 16//12 83//12 90//12
f 90//12 83//12 85//12
f 90//12 41//12 16//12
f 41//12 112//12 45//12
f 83//12 31//12 85//12
f 82//12 119//12 85//12
f 31//12 84//12 91//12
f 84//12 15//12 35//12
f 113//12 15//12 50//12
f 91//12 82//12 31//12
f 82//12 85//12 31//12
f 48//12 113//12 50//12
f 113//12 35//12 15//12
f 84//12 35//12 91//12
f 49//12 108//12 48//12
f 50//12 20//12 48//12
f 60//7 101//7 61//7
f 24//7 62//7 100//7
f 62//7 13//7 100//7
f 60//7 61//7 24//7
f 103//7 40//7 13//7
f 40//7 100//7 13//7
f 100//7 60//7 24//7
f 13//7 58//7 103//7
f 58//7 23//7 103//7
f 102//7 57//7 23//7
f 57//7 103//7 23//7
f 120//10 88//10 32//10
f 87//10 17//10 89//10
f 17//10 44//10 36//10
f 87//10 89//10 86//10
f 120//10 32//10 86//10
f 32//10 87//10 86//10
f 36//10 89//10 17//10
f 44//10 18//10 42//10
f 18//10 43//10 110//10
f 42//10 111//10 44//10
f 111//10 36//10 44//10
o Dark-Orange_Cube.008
v -0.300000 0.000000 0.300000
v -0.300000 2.000000 0.300000
v -0.300000 0.000000 -0.300000
v -0.300000 2.000000 -0.300000
v 0.300000 0.000000 0.300000
v 0.300000 2.000000 0.300000
v 0.300000 0.000000 -0.300000
v 0.300000 2.000000 -0.300000
vn -1.0000 0.0000 0.0000
vn 0.0000 0.0000 -1.0000
vn 1.0000 0.0000 0.0000
vn 0.0000 0.0000 1.0000
vn 0.0000 -1.0000 0.0000
vn 0.0000 1.0000 0.0000
usemtl Dark-Orange
s off
f 234//13 235//13 233//13
f 236//14 239//14 235//14
f 240//15 237//15 239//15
f 238//16 233//16 237//16
f 239//17 233//17 235//17
f 236//18 238//18 240//18
f 234//13 236//13 235//13
f 236//14 240//14 239//14
f 240//15 238//15 237//15
f 238//16 234//16 233//16
f 239//17 237//17 233//17
f 236//18 234//18 238//18
o Neon-Orange_Cube.009
v -0.300000 2.000000 -0.210000
v -0.300000 0.000000 -0.210000
v -0.300000 0.000000 0.096000
v -0.300000 2.000000 0.096000
v -0.400000 2.000000 0.096000
v -0.400000 2.000000 -0.210000
v -0.400000 0.000000 -0.210000
v -0.400000 0.000000 0.096000
vn 0.0000 1.0000 0.0000
vn -1.0000 0.0000 0.0000
vn 0.0000 0.0000 -1.0000
vn 0.0000 -0.0000 1.0000
vn 0.0000 -1.0000 0.0000
vn 1.0000 0.0000 0.0000
usemtl Material.001
s off
f 241//19 245//19 244//19
f 245//20 247//20 248//20
f 246//21 242//21 247//21
f 245//22 243//22 244//22
f 243//23 247//23 242//23
f 244//24 242//24 241//24
f 241//19 246//19 245//19
f 245//20 246//20 247//20
f 246//21 241//21 242//21
f 245//22 248//22 243//22
f 243//23 248//23 247//23
f 244//24 243//24 242//24
