# Blender v2.93.4 OBJ File: 'tron-block.blend'
# www.blender.org
mtllib tron-tree.mtl
o Dark-Green_Cube.001
v -1.000000 2.000000 1.000000
v -1.000000 4.000000 1.000000
v -1.000000 2.000000 -1.000000
v -1.000000 4.000000 -1.000000
v 1.000000 2.000000 1.000000
v 1.000000 4.000000 1.000000
v 1.000000 2.000000 -1.000000
v 1.000000 4.000000 -1.000000
vn -1.0000 0.0000 0.0000
vn 0.0000 0.0000 -1.0000
vn 1.0000 0.0000 0.0000
vn 0.0000 0.0000 1.0000
vn 0.0000 -1.0000 0.0000
vn 0.0000 1.0000 0.0000
usemtl Dark-Green
s off
f 4//1 1//1 2//1
f 8//2 3//2 4//2
f 6//3 7//3 8//3
f 2//4 5//4 6//4
f 5//5 3//5 7//5
f 2//6 8//6 4//6
f 4//1 3//1 1//1
f 8//2 7//2 3//2
f 6//3 5//3 7//3
f 2//4 1//4 5//4
f 5//5 1//5 3//5
f 2//6 6//6 8//6
o Neon-Green_Cube
v 1.000000 3.500000 -0.500000
v -0.500000 3.500000 -1.000000
v 1.000000 3.500000 0.500000
v -0.500000 3.500000 1.000000
v 0.750000 4.000000 0.500000
v 0.750000 3.500000 1.000000
v -0.500000 2.250000 1.000000
v -1.000000 2.500000 0.750000
v -1.000000 2.500000 -0.750000
v 0.750000 2.000000 -0.500000
v -0.750000 2.000000 -0.500000
v 1.000000 3.750000 -0.500000
v 1.000000 2.250000 0.500000
v -0.500000 2.250000 -1.000000
v 0.750000 3.500000 -1.000000
v -0.750000 4.000000 0.500000
v -0.750000 2.250000 -1.000000
v -0.750000 3.750000 -1.000000
v 1.000000 2.250000 0.750000
v -0.750000 2.000000 -0.750000
v 0.750000 2.000000 -0.750000
v -1.000000 2.250000 -0.750000
v -1.000000 2.250000 0.750000
v -0.750000 2.250000 1.000000
v 0.750000 3.750000 1.000000
v 0.750000 4.000000 0.750000
v 0.750000 3.750000 -1.000000
v 1.000000 3.750000 0.750000
v -0.750000 3.750000 1.000000
v -0.750000 4.000000 0.750000
v 1.100000 3.750000 -0.500000
v 1.100000 3.500000 -0.500000
v 1.100000 3.500000 0.500000
v 1.100000 2.250000 0.500000
v 1.100000 2.250000 0.750000
v 1.100000 3.750000 0.750000
v -0.750000 4.100000 0.500000
v 0.750000 4.100000 0.500000
v 0.750000 4.100000 0.750000
v -0.750000 4.100000 0.750000
v 0.750000 3.500000 1.100000
v -0.500000 3.500000 1.100000
v -0.500000 2.250000 1.100000
v -0.750000 2.250000 1.100000
v 0.750000 3.750000 1.100000
v -0.750000 3.750000 1.100000
v -1.100000 2.500000 0.750000
v -1.100000 2.500000 -0.750000
v -1.100000 2.250000 -0.750000
v -1.100000 2.250000 0.750000
v -0.500000 3.500000 -1.100000
v -0.500000 2.250000 -1.100000
v 0.750000 3.500000 -1.100000
v -0.750000 2.250000 -1.100000
v -0.750000 3.750000 -1.100000
v 0.750000 3.750000 -1.100000
v 0.750000 1.900000 -0.500000
v -0.750000 1.900000 -0.500000
v -0.750000 1.900000 -0.750000
v 0.750000 1.900000 -0.750000
vn 1.0000 0.0000 0.0000
vn 0.0000 -1.0000 0.0000
vn -1.0000 0.0000 0.0000
vn 0.0000 0.0000 1.0000
vn 0.0000 0.0000 -1.0000
vn 0.0000 1.0000 0.0000
usemtl Neon-Green
s off
f 53//7 14//7 33//7
f 42//8 27//8 21//8
f 65//7 29//7 18//7
f 61//7 35//7 23//7
f 57//8 31//8 58//8
f 61//8 10//8 59//8
f 62//8 22//8 25//8
f 51//7 12//7 50//7
f 25//9 63//9 62//9
f 48//10 34//10 47//10
f 41//8 9//8 40//8
f 39//11 9//11 20//11
f 33//12 54//12 53//12
f 20//12 44//12 39//12
f 42//11 11//11 41//11
f 33//11 14//11 12//11
f 16//12 56//12 55//12
f 18//10 66//10 65//10
f 37//9 52//9 54//9
f 28//11 68//11 67//11
f 46//11 24//11 45//11
f 51//8 32//8 15//8
f 43//7 42//7 41//7
f 63//12 35//12 64//12
f 50//8 14//8 49//8
f 55//10 31//10 16//10
f 66//8 68//8 65//8
f 57//11 17//11 30//11
f 46//7 34//7 13//7
f 67//9 19//9 28//9
f 10//7 60//7 59//7
f 24//8 34//8 38//8
f 44//10 27//10 43//10
f 59//11 62//11 63//11
f 20//9 9//9 11//9
f 46//12 48//12 47//12
f 16//7 30//7 17//7
f 56//9 58//9 55//9
f 54//10 50//10 53//10
f 26//10 10//10 35//10
f 48//9 24//9 38//9
f 18//12 28//12 19//12
f 53//7 49//7 14//7
f 42//8 43//8 27//8
f 65//7 68//7 29//7
f 61//7 64//7 35//7
f 57//8 30//8 31//8
f 61//8 23//8 10//8
f 62//8 60//8 22//8
f 51//7 15//7 12//7
f 25//9 26//9 63//9
f 48//10 38//10 34//10
f 41//8 11//8 9//8
f 39//11 40//11 9//11
f 33//12 37//12 54//12
f 20//12 36//12 44//12
f 42//11 21//11 11//11
f 15//11 32//11 12//11
f 32//11 37//11 12//11
f 37//11 33//11 12//11
f 16//12 17//12 56//12
f 18//10 19//10 66//10
f 37//9 32//9 52//9
f 28//11 29//11 68//11
f 46//11 13//11 24//11
f 51//8 52//8 32//8
f 40//7 39//7 41//7
f 39//7 44//7 41//7
f 44//7 43//7 41//7
f 63//12 26//12 35//12
f 50//8 12//8 14//8
f 55//10 58//10 31//10
f 66//8 67//8 68//8
f 57//11 56//11 17//11
f 46//7 47//7 34//7
f 67//9 66//9 19//9
f 10//7 22//7 60//7
f 24//8 13//8 34//8
f 44//10 36//10 27//10
f 59//11 60//11 62//11
f 63//11 64//11 59//11
f 64//11 61//11 59//11
f 21//9 27//9 11//9
f 27//9 36//9 11//9
f 36//9 20//9 11//9
f 46//12 45//12 48//12
f 16//7 31//7 30//7
f 56//9 57//9 58//9
f 54//10 52//10 50//10
f 52//10 51//10 50//10
f 50//10 49//10 53//10
f 26//10 25//10 10//10
f 25//10 22//10 10//10
f 10//10 23//10 35//10
f 48//9 45//9 24//9
f 18//12 29//12 28//12
o Dark-Orange_Cube.008
v -0.300000 0.000000 0.300000
v -0.300000 2.000000 0.300000
v -0.300000 0.000000 -0.300000
v -0.300000 2.000000 -0.300000
v 0.300000 0.000000 0.300000
v 0.300000 2.000000 0.300000
v 0.300000 0.000000 -0.300000
v 0.300000 2.000000 -0.300000
vn -1.0000 0.0000 0.0000
vn 0.0000 0.0000 -1.0000
vn 1.0000 0.0000 0.0000
vn 0.0000 0.0000 1.0000
vn 0.0000 -1.0000 0.0000
vn 0.0000 1.0000 0.0000
usemtl Dark-Orange
s off
f 70//13 71//13 69//13
f 72//14 75//14 71//14
f 76//15 73//15 75//15
f 74//16 69//16 73//16
f 75//17 69//17 71//17
f 72//18 74//18 76//18
f 70//13 72//13 71//13
f 72//14 76//14 75//14
f 76//15 74//15 73//15
f 74//16 70//16 69//16
f 75//17 73//17 69//17
f 72//18 70//18 74//18
o Neon-Orange_Cube.009
v -0.300000 2.000000 -0.210000
v -0.300000 0.000000 -0.210000
v -0.300000 0.000000 0.096000
v -0.300000 2.000000 0.096000
v -0.400000 2.000000 0.096000
v -0.400000 2.000000 -0.210000
v -0.400000 0.000000 -0.210000
v -0.400000 0.000000 0.096000
vn 0.0000 1.0000 0.0000
vn -1.0000 0.0000 0.0000
vn 0.0000 0.0000 -1.0000
vn 0.0000 -0.0000 1.0000
vn 0.0000 -1.0000 0.0000
vn 1.0000 0.0000 0.0000
usemtl Material.001
s off
f 77//19 81//19 80//19
f 81//20 83//20 84//20
f 82//21 78//21 83//21
f 81//22 79//22 80//22
f 79//23 83//23 78//23
f 80//24 78//24 77//24
f 77//19 82//19 81//19
f 81//20 82//20 83//20
f 82//21 77//21 78//21
f 81//22 84//22 79//22
f 79//23 84//23 83//23
f 80//24 79//24 78//24
