# Blender v2.93.4 OBJ File: 'tron-block.blend'
# www.blender.org
mtllib tron-block-neon.mtl
o Cube
v -0.500000 0.000000 -1.000000
v 0.000000 0.500000 -1.000000
v 1.000000 0.000000 0.500000
v 1.000000 0.500000 0.000000
v 0.000000 -1.000000 -0.500000
v -1.000000 -0.500000 0.000000
v -0.500000 0.000000 1.000000
v 0.000000 0.500000 1.000000
v 0.000000 1.000000 0.500000
v 0.500000 1.000000 0.500000
v 0.500000 0.500000 1.000000
v -0.500000 -0.500000 1.000000
v -1.000000 -0.500000 0.500000
v -1.000000 -0.500000 -0.500000
v 0.500000 -1.000000 -0.500000
v -0.500000 -1.000000 -0.500000
v 1.000000 0.500000 -0.500000
v 1.000000 -0.500000 0.500000
v -0.500000 0.500000 -1.000000
v -0.500000 -0.500000 -1.000000
v 0.500000 0.500000 -1.000000
v 1.000000 0.500000 0.500000
v -0.500000 0.500000 1.000000
v -0.500000 1.000000 0.500000
v 1.000000 0.000000 0.750000
v -1.000000 -0.750000 0.000000
v -0.750000 0.000000 1.000000
v 0.000000 1.000000 0.750000
v -0.750000 0.000000 -1.000000
v 0.000000 0.750000 -1.000000
v 1.000000 0.750000 0.000000
v 0.000000 -1.000000 -0.750000
v 0.000000 0.750000 1.000000
v 0.500000 1.000000 0.750000
v 0.750000 1.000000 0.500000
v 0.250000 1.000000 0.500000
v 0.250000 0.500000 1.000000
v 0.750000 0.500000 1.000000
v 0.500000 0.750000 1.000000
v -0.750000 -0.500000 1.000000
v -0.500000 -0.750000 1.000000
v -0.500000 -0.250000 1.000000
v -1.000000 -0.500000 0.250000
v -1.000000 -0.500000 0.750000
v -1.000000 -0.750000 0.500000
v -1.000000 -0.500000 -0.750000
v -1.000000 -0.500000 -0.250000
v -1.000000 -0.750000 -0.500000
v 0.500000 -1.000000 -0.750000
v 0.250000 -1.000000 -0.500000
v 0.750000 -1.000000 -0.500000
v -0.500000 -1.000000 -0.750000
v -0.750000 -1.000000 -0.500000
v -0.250000 -1.000000 -0.500000
v 1.000000 0.500000 -0.250000
v 1.000000 0.750000 -0.500000
v 1.000000 -0.500000 0.750000
v 1.000000 -0.750000 0.500000
v 1.000000 -0.250000 0.500000
v -0.250000 0.500000 -1.000000
v -0.750000 0.500000 -1.000000
v -0.500000 0.250000 -1.000000
v -0.500000 0.750000 -1.000000
v -0.750000 -0.500000 -1.000000
v -0.500000 -0.750000 -1.000000
v -0.500000 -0.250000 -1.000000
v 0.750000 0.500000 -1.000000
v 0.250000 0.500000 -1.000000
v 0.500000 0.750000 -1.000000
v 1.000000 0.500000 0.750000
v 1.000000 0.500000 0.250000
v 1.000000 0.250000 0.500000
v 1.000000 0.750000 0.500000
v -0.750000 0.500000 1.000000
v -0.250000 0.500000 1.000000
v -0.500000 0.250000 1.000000
v -0.500000 0.750000 1.000000
v -0.500000 1.000000 0.750000
v -0.250000 1.000000 0.500000
v -0.750000 1.000000 0.500000
v -0.250000 1.000000 0.750000
v -0.250000 0.750000 1.000000
v -0.750000 0.250000 1.000000
v 1.000000 0.750000 0.250000
v 1.000000 0.250000 0.750000
v 0.250000 0.750000 -1.000000
v -0.750000 -0.250000 -1.000000
v -0.750000 -0.750000 -1.000000
v -0.750000 0.750000 -1.000000
v -0.750000 0.250000 -1.000000
v 1.000000 -0.750000 0.750000
v -0.250000 -1.000000 -0.750000
v -0.750000 -1.000000 -0.750000
v 0.750000 -1.000000 -0.750000
v 0.250000 -1.000000 -0.750000
v -1.000000 -0.750000 -0.250000
v -1.000000 -0.750000 -0.750000
v -1.000000 -0.750000 0.750000
v -1.000000 -0.750000 0.250000
v -0.750000 -0.750000 1.000000
v 0.750000 0.750000 1.000000
v 0.750000 1.000000 0.750000
v 0.250000 1.000000 0.750000
v 0.250000 0.750000 1.000000
v -0.750000 -0.250000 1.000000
v 1.000000 0.750000 -0.250000
v 1.000000 -0.250000 0.750000
v -0.250000 0.750000 -1.000000
v 0.750000 0.750000 -1.000000
v 1.000000 0.750000 0.750000
v -0.750000 0.750000 1.000000
v -0.750000 1.000000 0.750000
v 1.100000 0.750000 0.000000
v 1.100000 0.500000 0.000000
v 1.100000 0.500000 -0.250000
v 1.100000 0.750000 -0.500000
v 1.100000 0.500000 -0.500000
v 1.100000 -0.250000 0.500000
v 1.100000 -0.500000 0.500000
v 1.100000 0.500000 0.250000
v 1.100000 0.500000 0.500000
v 1.100000 0.250000 0.500000
v 1.100000 0.000000 0.500000
v 1.100000 0.750000 0.500000
v 1.100000 0.000000 0.750000
v 1.100000 -0.500000 0.750000
v 1.100000 -0.750000 0.500000
v 1.100000 0.500000 0.750000
v 1.100000 0.750000 0.250000
v 1.100000 0.250000 0.750000
v 1.100000 -0.750000 0.750000
v 1.100000 0.750000 -0.250000
v 1.100000 -0.250000 0.750000
v 1.100000 0.750000 0.750000
v 0.250000 1.100000 0.500000
v 0.500000 1.100000 0.500000
v -0.250000 1.100000 0.500000
v 0.000000 1.100000 0.500000
v -0.750000 1.100000 0.500000
v -0.500000 1.100000 0.500000
v 0.000000 1.100000 0.750000
v 0.500000 1.100000 0.750000
v 0.750000 1.100000 0.500000
v -0.500000 1.100000 0.750000
v -0.250000 1.100000 0.750000
v 0.750000 1.100000 0.750000
v 0.250000 1.100000 0.750000
v -0.750000 1.100000 0.750000
v 0.000000 0.750000 1.100000
v 0.000000 0.500000 1.100000
v 0.250000 0.500000 1.100000
v 0.750000 0.500000 1.100000
v 0.500000 0.500000 1.100000
v 0.500000 0.750000 1.100000
v -0.500000 -0.250000 1.100000
v -0.500000 -0.500000 1.100000
v -0.250000 0.500000 1.100000
v -0.500000 0.500000 1.100000
v -0.500000 0.250000 1.100000
v -0.500000 0.000000 1.100000
v -0.500000 0.750000 1.100000
v -0.750000 0.000000 1.100000
v -0.750000 -0.500000 1.100000
v -0.500000 -0.750000 1.100000
v -0.750000 0.500000 1.100000
v -0.250000 0.750000 1.100000
v -0.750000 0.250000 1.100000
v -0.750000 -0.750000 1.100000
v 0.750000 0.750000 1.100000
v 0.250000 0.750000 1.100000
v -0.750000 -0.250000 1.100000
v -0.750000 0.750000 1.100000
v -1.100000 -0.500000 0.250000
v -1.100000 -0.500000 0.000000
v -1.100000 -0.500000 0.750000
v -1.100000 -0.500000 0.500000
v -1.100000 -0.500000 -0.250000
v -1.100000 -0.500000 -0.500000
v -1.100000 -0.750000 0.000000
v -1.100000 -0.750000 0.500000
v -1.100000 -0.500000 -0.750000
v -1.100000 -0.750000 -0.500000
v -1.100000 -0.750000 -0.250000
v -1.100000 -0.750000 -0.750000
v -1.100000 -0.750000 0.750000
v -1.100000 -0.750000 0.250000
v -0.750000 0.000000 -1.100000
v -0.500000 0.000000 -1.100000
v 0.000000 0.750000 -1.100000
v 0.000000 0.500000 -1.100000
v -0.250000 0.500000 -1.100000
v -0.750000 0.500000 -1.100000
v -0.500000 0.500000 -1.100000
v -0.500000 0.250000 -1.100000
v -0.500000 0.750000 -1.100000
v -0.750000 -0.500000 -1.100000
v -0.500000 -0.500000 -1.100000
v -0.500000 -0.250000 -1.100000
v 0.250000 0.500000 -1.100000
v 0.500000 0.500000 -1.100000
v 0.500000 0.750000 -1.100000
v -0.500000 -0.750000 -1.100000
v 0.750000 0.500000 -1.100000
v 0.250000 0.750000 -1.100000
v -0.750000 -0.250000 -1.100000
v -0.750000 -0.750000 -1.100000
v -0.750000 0.750000 -1.100000
v -0.750000 0.250000 -1.100000
v -0.250000 0.750000 -1.100000
v 0.750000 0.750000 -1.100000
v 0.000000 -1.100000 -0.750000
v 0.000000 -1.100000 -0.500000
v 0.500000 -1.100000 -0.750000
v 0.500000 -1.100000 -0.500000
v 0.250000 -1.100000 -0.500000
v 0.750000 -1.100000 -0.500000
v -0.500000 -1.100000 -0.750000
v -0.500000 -1.100000 -0.500000
v -0.250000 -1.100000 -0.500000
v -0.750000 -1.100000 -0.500000
v -0.250000 -1.100000 -0.750000
v -0.750000 -1.100000 -0.750000
v 0.750000 -1.100000 -0.750000
v 0.250000 -1.100000 -0.750000
vt 0.437500 0.031250
vt 0.437500 0.062500
vt 0.437500 0.062500
vt 0.437500 0.031250
vt 0.406250 0.031250
vt 0.406250 0.031250
vt 0.437500 0.093750
vt 0.437500 0.125000
vt 0.437500 0.125000
vt 0.437500 0.093750
vt 0.218750 0.562500
vt 0.187500 0.562500
vt 0.187500 0.562500
vt 0.218750 0.562500
vt 0.250000 0.562500
vt 0.250000 0.562500
vt 0.343750 0.531250
vt 0.343750 0.562500
vt 0.343750 0.562500
vt 0.343750 0.531250
vt 0.562500 0.437500
vt 0.562500 0.406250
vt 0.562500 0.406250
vt 0.562500 0.437500
vt 0.437500 0.312500
vt 0.406250 0.312500
vt 0.406250 0.312500
vt 0.437500 0.312500
vt 0.531250 0.281250
vt 0.562500 0.281250
vt 0.562500 0.281250
vt 0.531250 0.281250
vt 0.656250 0.718750
vt 0.656250 0.687500
vt 0.656250 0.687500
vt 0.656250 0.718750
vt 0.812500 0.687500
vt 0.843750 0.687500
vt 0.843750 0.687500
vt 0.812500 0.687500
vt 0.531250 0.968750
vt 0.500000 0.968750
vt 0.500000 0.968750
vt 0.531250 0.968750
vt 0.593750 0.937500
vt 0.593750 0.968750
vt 0.593750 0.968750
vt 0.593750 0.937500
vt 0.468750 0.968750
vt 0.437500 0.968750
vt 0.437500 0.968750
vt 0.468750 0.968750
vt 0.562500 0.812500
vt 0.562500 0.781250
vt 0.562500 0.781250
vt 0.562500 0.812500
vt 0.562500 0.718750
vt 0.531250 0.718750
vt 0.531250 0.718750
vt 0.562500 0.718750
vt 0.500000 0.718750
vt 0.468750 0.718750
vt 0.468750 0.718750
vt 0.500000 0.718750
vt 0.406250 0.687500
vt 0.437500 0.687500
vt 0.437500 0.687500
vt 0.406250 0.687500
vt 0.593750 0.468750
vt 0.562500 0.468750
vt 0.562500 0.468750
vt 0.593750 0.468750
vt 0.562500 0.375000
vt 0.562500 0.375000
vt 0.406250 0.281250
vt 0.406250 0.281250
vt 0.500000 0.281250
vt 0.500000 0.281250
vt 0.593750 0.437500
vt 0.593750 0.437500
vt 0.406250 0.718750
vt 0.406250 0.718750
vt 0.156250 0.562500
vt 0.156250 0.562500
vt 0.281250 0.531250
vt 0.312500 0.531250
vt 0.312500 0.531250
vt 0.281250 0.531250
vt 0.156250 0.531250
vt 0.156250 0.531250
vt 0.406250 0.187500
vt 0.406250 0.156250
vt 0.406250 0.156250
vt 0.406250 0.187500
vt 0.437500 0.218750
vt 0.406250 0.218750
vt 0.406250 0.218750
vt 0.437500 0.218750
vt 0.593750 0.875000
vt 0.593750 0.906250
vt 0.593750 0.906250
vt 0.593750 0.875000
vt 0.562500 0.875000
vt 0.562500 0.843750
vt 0.562500 0.843750
vt 0.562500 0.875000
vt 0.750000 0.687500
vt 0.781250 0.687500
vt 0.781250 0.687500
vt 0.750000 0.687500
vt 0.843750 0.718750
vt 0.812500 0.718750
vt 0.812500 0.718750
vt 0.843750 0.718750
vt 0.593750 0.781250
vt 0.593750 0.781250
vt 0.406250 0.968750
vt 0.406250 0.968750
vt 0.593750 0.812500
vt 0.593750 0.843750
vt 0.593750 0.843750
vt 0.593750 0.812500
vt 0.437500 0.718750
vt 0.437500 0.718750
vt 0.500000 0.687500
vt 0.531250 0.687500
vt 0.531250 0.687500
vt 0.500000 0.687500
vt 0.593750 0.625000
vt 0.593750 0.656250
vt 0.593750 0.656250
vt 0.593750 0.625000
vt 0.562500 0.625000
vt 0.562500 0.593750
vt 0.562500 0.593750
vt 0.562500 0.625000
vt 0.468750 0.281250
vt 0.468750 0.281250
vt 0.437500 0.281250
vt 0.437500 0.281250
vt 0.562500 0.687500
vt 0.562500 0.687500
vt 0.687500 0.687500
vt 0.718750 0.687500
vt 0.718750 0.687500
vt 0.687500 0.687500
vt 0.562500 0.656250
vt 0.593750 0.687500
vt 0.593750 0.593750
vt 0.562500 0.562500
vt 0.593750 0.562500
vt 0.468750 0.687500
vt 0.593750 0.718750
vt 0.562500 0.562500
vt 0.593750 0.562500
vt 0.468750 0.687500
vt 0.593750 0.687500
vt 0.593750 0.718750
vt 0.593750 0.593750
vt 0.562500 0.656250
vt 0.781250 0.718750
vt 0.750000 0.718750
vt 0.687500 0.718750
vt 0.718750 0.718750
vt 0.718750 0.718750
vt 0.687500 0.718750
vt 0.781250 0.718750
vt 0.750000 0.718750
vt 0.562500 0.906250
vt 0.562500 0.937500
vt 0.500000 0.937500
vt 0.531250 0.937500
vt 0.562500 0.968750
vt 0.406250 0.937500
vt 0.437500 0.937500
vt 0.468750 0.937500
vt 0.406250 0.937500
vt 0.437500 0.937500
vt 0.562500 0.906250
vt 0.562500 0.968750
vt 0.562500 0.937500
vt 0.468750 0.937500
vt 0.500000 0.937500
vt 0.531250 0.937500
vt 0.406250 0.093750
vt 0.406250 0.125000
vt 0.406250 0.062500
vt 0.437500 0.156250
vt 0.437500 0.187500
vt 0.406250 0.125000
vt 0.406250 0.093750
vt 0.406250 0.062500
vt 0.437500 0.187500
vt 0.437500 0.156250
vt 0.562500 0.312500
vt 0.531250 0.312500
vt 0.500000 0.312500
vt 0.468750 0.312500
vt 0.593750 0.406250
vt 0.593750 0.375000
vt 0.593750 0.281250
vt 0.593750 0.312500
vt 0.562500 0.343750
vt 0.593750 0.343750
vt 0.593750 0.281250
vt 0.593750 0.312500
vt 0.593750 0.343750
vt 0.593750 0.375000
vt 0.500000 0.312500
vt 0.468750 0.312500
vt 0.593750 0.406250
vt 0.562500 0.343750
vt 0.562500 0.312500
vt 0.531250 0.312500
vt 0.312500 0.562500
vt 0.281250 0.562500
vt 0.187500 0.531250
vt 0.218750 0.531250
vt 0.250000 0.531250
vt 0.187500 0.531250
vt 0.312500 0.562500
vt 0.281250 0.562500
vt 0.218750 0.531250
vt 0.250000 0.531250
vt 0.406250 0.218750
vt 0.437500 0.218750
vt 0.437500 0.093750
vt 0.406250 0.031250
vt 0.406250 0.281250
vt 0.562500 0.343750
vt 0.593750 0.468750
vt 0.406250 0.718750
vt 0.437500 0.718750
vt 0.593750 0.718750
vt 0.593750 0.781250
vt 0.562500 0.843750
vt 0.406250 0.968750
vt 0.437500 0.968750
vt 0.593750 0.968750
vt 0.218750 0.562500
vt 0.281250 0.562500
vt 0.312500 0.531250
vt 0.687500 0.718750
vn 0.0000 1.0000 0.0000
vn 0.0000 0.0000 1.0000
vn 1.0000 0.0000 0.0000
vn 0.0000 -1.0000 0.0000
vn -1.0000 0.0000 0.0000
vn 0.0000 0.0000 -1.0000
usemtl Material
s off
f 44/1/1 13/2/1 176/3/1 175/4/1
f 98/5/2 44/1/2 175/4/2 185/6/2
f 43/7/1 6/8/1 174/9/1 173/10/1
f 54/11/2 16/12/2 218/13/2 219/14/2
f 5/15/2 54/11/2 219/14/2 212/16/2
f 94/17/3 51/18/3 216/19/3 223/20/3
f 21/21/4 68/22/4 199/23/4 200/24/4
f 20/25/3 65/26/3 202/27/3 197/28/3
f 90/29/5 61/30/5 192/31/5 208/32/5
f 102/33/3 35/34/3 143/35/3 146/36/3
f 24/37/6 80/38/6 139/39/6 140/40/6
f 83/41/5 27/42/5 162/43/5 167/44/5
f 77/45/1 111/46/1 172/47/1 161/48/1
f 105/49/5 40/50/5 163/51/5 171/52/5
f 11/53/4 38/54/4 152/55/4 153/56/4
f 70/57/2 85/58/2 130/59/2 128/60/2
f 25/61/2 107/62/2 133/63/2 125/64/2
f 58/65/6 18/66/6 119/67/6 127/68/6
f 85/58/2 25/61/2 125/64/2 130/59/2
f 109/69/3 67/70/3 203/71/3 210/72/3
f 68/22/4 2/73/4 190/74/4 199/23/4
f 65/26/4 88/75/4 206/76/4 202/27/4
f 29/77/5 90/29/5 208/32/5 187/78/5
f 69/79/1 109/69/1 210/72/1 201/80/1
f 91/81/4 58/65/4 127/68/4 131/82/4
f 16/12/2 53/83/2 220/84/2 218/13/2
f 95/85/6 49/86/6 213/87/6 224/88/6
f 53/83/5 93/89/5 222/90/5 220/84/5
f 48/91/4 96/92/4 183/93/4 182/94/4
f 13/2/1 43/7/1 173/10/1 176/3/1
f 46/95/6 97/96/6 184/97/6 181/98/6
f 33/99/1 82/100/1 166/101/1 149/102/1
f 8/103/4 37/104/4 151/105/4 150/106/4
f 9/107/6 79/108/6 137/109/6 138/110/6
f 79/108/6 24/37/6 140/40/6 137/109/6
f 112/111/2 78/112/2 144/113/2 148/114/2
f 38/54/3 101/115/3 169/116/3 152/55/3
f 40/50/5 100/117/5 168/118/5 163/51/5
f 39/119/1 104/120/1 170/121/1 154/122/1
f 37/104/4 11/53/4 153/56/4 151/105/4
f 107/62/2 57/123/2 126/124/2 133/63/2
f 3/125/6 72/126/6 122/127/6 123/128/6
f 31/129/1 84/130/1 129/131/1 113/132/1
f 4/133/4 55/134/4 115/135/4 114/136/4
f 67/70/4 21/21/4 200/24/4 203/71/4
f 87/137/5 29/77/5 187/78/5 205/138/5
f 64/139/5 87/137/5 205/138/5 196/140/5
f 72/126/6 22/141/6 121/142/6 122/127/6
f 82/100/1 77/45/1 161/48/1 166/101/1
f 10/143/6 36/144/6 135/145/6 136/146/6
f 120/147/3 129/131/3 124/148/3 121/142/3
f 114/136/3 113/132/3 129/131/3 120/147/3
f 123/128/3 122/127/3 130/59/3 125/64/3
f 122/127/3 121/142/3 128/60/3 130/59/3
f 127/68/3 119/67/3 126/124/3 131/82/3
f 115/135/3 132/149/3 113/132/3 114/136/3
f 117/150/3 116/151/3 132/149/3 115/135/3
f 119/67/3 118/152/3 133/63/3 126/124/3
f 118/152/3 123/128/3 125/64/3 133/63/3
f 121/142/3 124/148/3 134/153/3 128/60/3
f 17/154/6 56/155/6 116/151/6 117/150/6
f 59/156/6 3/125/6 123/128/6 118/152/6
f 18/66/6 59/156/6 118/152/6 119/67/6
f 57/123/2 91/81/2 131/82/2 126/124/2
f 73/157/1 110/158/1 134/153/1 124/148/1
f 106/159/1 31/129/1 113/132/1 132/149/1
f 71/160/4 4/133/4 114/136/4 120/147/4
f 110/158/2 70/57/2 128/60/2 134/153/2
f 84/130/1 73/157/1 124/148/1 129/131/1
f 22/141/4 71/160/4 120/147/4 121/142/4
f 55/134/4 17/154/4 117/150/4 115/135/4
f 56/155/1 106/159/1 132/149/1 116/151/1
f 138/110/1 137/109/1 145/161/1 141/162/1
f 137/109/1 140/40/1 144/113/1 145/161/1
f 143/35/1 136/146/1 142/163/1 146/36/1
f 136/146/1 135/145/1 147/164/1 142/163/1
f 135/145/1 138/110/1 141/162/1 147/164/1
f 140/40/1 139/39/1 148/114/1 144/113/1
f 103/165/2 34/166/2 142/163/2 147/164/2
f 81/167/2 28/168/2 141/162/2 145/161/2
f 35/34/6 10/143/6 136/146/6 143/35/6
f 28/168/2 103/165/2 147/164/2 141/162/2
f 80/38/5 112/111/5 148/114/5 139/39/5
f 78/112/2 81/167/2 145/161/2 144/113/2
f 36/144/6 9/107/6 138/110/6 135/145/6
f 34/166/2 102/33/2 146/36/2 142/163/2
f 157/169/2 166/101/2 161/48/2 158/170/2
f 150/106/2 149/102/2 166/101/2 157/169/2
f 160/171/2 159/172/2 167/44/2 162/43/2
f 159/172/2 158/170/2 165/173/2 167/44/2
f 164/174/2 156/175/2 163/51/2 168/118/2
f 152/55/2 169/116/2 154/122/2 153/56/2
f 151/105/2 170/121/2 149/102/2 150/106/2
f 153/56/2 154/122/2 170/121/2 151/105/2
f 156/175/2 155/176/2 171/52/2 163/51/2
f 155/176/2 160/171/2 162/43/2 171/52/2
f 158/170/2 161/48/2 172/47/2 165/173/2
f 41/177/3 12/178/3 156/175/3 164/174/3
f 27/42/5 105/49/5 171/52/5 162/43/5
f 75/179/4 8/103/4 150/106/4 157/169/4
f 111/46/5 74/180/5 165/173/5 172/47/5
f 74/180/5 83/41/5 167/44/5 165/173/5
f 23/181/4 75/179/4 157/169/4 158/170/4
f 42/182/3 7/183/3 160/171/3 155/176/3
f 12/178/3 42/182/3 155/176/3 156/175/3
f 76/184/3 23/181/3 158/170/3 159/172/3
f 7/183/3 76/184/3 159/172/3 160/171/3
f 100/117/4 41/177/4 164/174/4 168/118/4
f 101/115/1 39/119/1 154/122/1 169/116/1
f 104/120/1 33/99/1 149/102/1 170/121/1
f 186/185/5 173/10/5 174/9/5 179/186/5
f 185/6/5 175/4/5 176/3/5 180/187/5
f 183/93/5 177/188/5 178/189/5 182/94/5
f 179/186/5 174/9/5 177/188/5 183/93/5
f 182/94/5 178/189/5 181/98/5 184/97/5
f 180/187/5 176/3/5 173/10/5 186/185/5
f 96/92/4 26/190/4 179/186/4 183/93/4
f 26/190/4 99/191/4 186/185/4 179/186/4
f 99/191/4 45/192/4 180/187/4 186/185/4
f 14/193/1 46/95/1 181/98/1 178/189/1
f 45/192/4 98/5/4 185/6/4 180/187/4
f 6/8/1 47/194/1 177/188/1 174/9/1
f 47/194/1 14/193/1 178/189/1 177/188/1
f 97/96/4 48/91/4 182/94/4 184/97/4
f 208/32/6 192/31/6 193/195/6 194/196/6
f 206/76/6 196/140/6 197/28/6 202/27/6
f 205/138/6 187/78/6 188/197/6 198/198/6
f 199/23/6 204/199/6 201/80/6 200/24/6
f 190/74/6 189/200/6 204/199/6 199/23/6
f 196/140/6 205/138/6 198/198/6 197/28/6
f 192/31/6 207/201/6 195/202/6 193/195/6
f 187/78/6 208/32/6 194/196/6 188/197/6
f 191/203/6 209/204/6 189/200/6 190/74/6
f 193/195/6 195/202/6 209/204/6 191/203/6
f 200/24/6 201/80/6 210/72/6 203/71/6
f 89/205/1 63/206/1 195/202/1 207/201/1
f 108/207/1 30/208/1 189/200/1 209/204/1
f 1/209/3 66/210/3 198/198/3 188/197/3
f 86/211/1 69/79/1 201/80/1 204/199/1
f 66/210/3 20/25/3 197/28/3 198/198/3
f 60/212/4 19/213/4 193/195/4 191/203/4
f 63/206/1 108/207/1 209/204/1 195/202/1
f 2/73/4 60/212/4 191/203/4 190/74/4
f 61/30/5 89/205/5 207/201/5 192/31/5
f 30/208/1 86/211/1 204/199/1 189/200/1
f 88/75/5 64/139/5 196/140/5 206/76/5
f 19/213/3 62/214/3 194/196/3 193/195/3
f 62/214/3 1/209/3 188/197/3 194/196/3
f 224/88/4 213/87/4 214/215/4 215/216/4
f 222/90/4 217/217/4 218/13/4 220/84/4
f 221/218/4 211/219/4 212/16/4 219/14/4
f 217/217/4 221/218/4 219/14/4 218/13/4
f 213/87/4 223/20/4 216/19/4 214/215/4
f 211/219/4 224/88/4 215/216/4 212/16/4
f 49/86/6 94/17/6 223/20/6 213/87/6
f 93/89/6 52/220/6 217/217/6 222/90/6
f 15/221/2 50/222/2 215/216/2 214/215/2
f 50/222/2 5/15/2 212/16/2 215/216/2
f 51/18/2 15/221/2 214/215/2 216/19/2
f 52/220/6 92/223/6 221/218/6 217/217/6
f 92/223/6 32/224/6 211/219/6 221/218/6
f 32/224/6 95/85/6 224/88/6 211/219/6
f 97/225/3 46/226/3 14/193/3 47/194/3 6/8/3 43/227/3 13/2/3 44/1/3 98/228/3 45/192/3 99/191/3 26/190/3 96/92/3 48/91/3
f 88/229/2 65/26/2 20/25/2 66/210/2 1/209/2 62/214/2 19/213/2 60/230/2 2/73/2 68/22/2 21/21/2 67/70/2 109/231/2 69/79/2 86/211/2 30/208/2 108/207/2 63/206/2 89/205/2 61/30/2 90/29/2 29/77/2 87/137/2 64/139/2
f 17/154/5 55/134/5 4/133/5 71/160/5 22/141/5 72/126/5 3/125/5 59/156/5 18/66/5 58/65/5 91/232/5 57/233/5 107/62/5 25/61/5 85/58/5 70/57/5 110/234/5 73/157/5 84/130/5 31/129/5 106/159/5 56/155/5
f 39/119/6 101/235/6 38/54/6 11/53/6 37/236/6 8/103/6 75/179/6 23/181/6 76/184/6 7/183/6 42/182/6 12/178/6 41/177/6 100/237/6 40/238/6 105/49/6 27/42/6 83/41/6 74/180/6 111/239/6 77/45/6 82/100/6 33/99/6 104/120/6
f 93/89/1 53/83/1 16/12/1 54/240/1 5/15/1 50/241/1 15/221/1 51/18/1 94/17/1 49/242/1 95/85/1 32/224/1 92/223/1 52/220/1
f 80/38/4 24/37/4 79/108/4 9/107/4 36/144/4 10/143/4 35/34/4 102/33/4 34/243/4 103/165/4 28/168/4 81/167/4 78/112/4 112/111/4
