# Blender v2.93.4 OBJ File: 'tron-block 2x4x6.blend'
# www.blender.org
mtllib tron-block-neon-2x4x6m.mtl
o Cube
v 1.000000 6.000000 0.500000
v -0.502000 6.002000 0.500000
v 1.000000 5.800000 0.500000
v 1.100000 0.500000 0.500000
v 1.100000 0.500000 -2.800000
v 1.100000 5.800000 0.700000
v 1.100000 0.300000 0.700000
v 1.100000 0.300000 -2.800000
v 1.100000 5.800000 0.500000
v -0.700000 6.100000 0.500000
v -0.700000 6.100000 0.700000
v 1.100000 6.100000 0.500000
v 1.100000 6.100000 0.700000
v 0.800000 0.500000 1.100000
v -0.500000 0.500000 1.100000
v -0.500000 5.800000 1.100000
v -0.700000 5.800000 1.100000
v -0.700000 0.300000 1.100000
v 0.800000 0.300000 1.100000
v -0.500000 6.100000 0.500000
v -0.500000 6.100000 -2.800000
v -0.700000 6.100000 -2.800000
v -1.100000 0.500000 0.700000
v -1.100000 0.500000 -2.500000
v -1.100000 5.500000 -2.800000
v -1.100000 5.800000 -2.500000
v -1.100000 0.300000 -2.800000
v -1.100000 0.300000 0.700000
v 0.800000 5.500000 -3.100000
v 0.800000 5.800000 -3.100000
v -1.100000 5.500000 -3.100000
v -1.100000 5.800000 -3.100000
v -0.500000 -0.100000 -2.500000
v -0.500000 -0.100000 0.700000
v 0.800000 -0.100000 -2.500000
v 0.800000 -0.100000 -2.800000
v -0.700000 -0.100000 0.700000
v -0.700000 -0.100000 -2.800000
v -0.500000 -0.003000 0.700000
v 1.001000 0.500000 -2.800000
v 1.001000 0.300000 -2.800000
v -0.700000 0.300000 1.002000
v -0.500000 5.800000 1.002000
v 0.800000 0.300000 1.002000
v -1.001000 0.300000 -2.800000
v 1.001000 5.800000 0.700000
v -0.700000 6.003000 0.500000
v -0.700000 -0.003000 -2.800000
v 1.001000 0.300000 0.700000
v 0.800000 5.800000 -3.002000
v -0.500000 0.500000 1.002000
v -1.001000 5.800000 -2.500000
v -1.001000 5.800000 -3.002000
v 1.001000 0.500000 0.500000
v 1.001000 6.003000 0.700000
v -0.700000 6.003000 0.700000
v -0.700000 5.800000 1.002000
v 0.800000 0.500000 1.002000
v -0.500000 6.003000 -2.800000
v -0.700000 -0.003000 0.700000
v 0.800000 -0.003000 -2.500000
v -1.001000 0.500000 0.700000
v -1.001000 0.500000 -2.500000
v -0.700000 6.003000 -2.800000
v 0.800000 -0.003000 -2.800000
v -0.500000 -0.003000 -2.500000
v -1.001000 5.500000 -2.800000
v -1.001000 5.500000 -3.002000
v 0.800000 5.500000 -3.002000
v -1.001000 0.300000 0.700000
vt 0.812500 0.687500
vt 0.812500 0.500000
vt 0.812500 0.500000
vt 0.406250 0.968750
vt 0.406250 0.781250
vt 0.406250 0.781250
vt 0.156250 0.718750
vt 0.156250 0.500000
vt 0.156250 0.718750
vt 0.843750 0.500000
vt 0.843750 0.687500
vt 0.843750 0.687500
vt 0.187500 0.500000
vt 0.343750 0.500000
vt 0.187500 0.500000
vt 0.406250 0.500000
vt 0.437500 0.500000
vt 0.406250 0.500000
vt 0.437500 0.781250
vt 0.437500 0.250000
vt 0.437500 0.031250
vt 0.437500 0.031250
vt 0.625000 0.968750
vt 0.625000 0.937500
vt 0.625000 0.968750
vt 0.625243 0.718750
vt 0.625000 0.718750
vt 0.625000 0.718750
vt 0.343750 0.500000
vt 0.343750 0.500000
vt 0.625000 0.687500
vt 0.625000 0.718750
vt 0.187500 0.718750
vt 0.187500 0.718750
vt 0.406250 0.968750
vt 0.625000 0.687500
vt 0.437500 0.687500
vt 0.437500 0.687500
vt 0.843750 0.500000
vt 0.406250 0.718750
vt 0.437500 0.937500
vt 0.843750 0.718750
vt 0.406250 0.031250
vt 0.406250 0.250000
vt 0.406250 0.031250
vt 0.625000 0.250000
vt 0.406250 0.250000
vt 0.625000 0.250000
vt 0.625000 0.250115
vt 0.625000 0.468750
vt 0.625000 0.250000
vt 0.437500 0.781250
vt 0.437500 0.937500
vt 0.625000 0.468750
vt 0.625000 0.468750
vt 0.843750 0.718750
vt 0.625000 0.937500
vt 0.406250 0.718750
vt 0.625000 0.250115
vt 0.625000 0.250000
vt 0.625000 0.687500
vt 0.437500 0.250000
vt 0.813438 0.687500
vt 0.000000 0.000000
vt 0.000000 0.000000
vt 0.000000 0.000000
vt 0.625000 0.250000
vt 0.625000 0.250000
vt 0.812500 0.687500
vt 0.625000 0.687500
vt 0.343750 0.500000
vt 0.604063 0.237388
vt 0.616550 0.218656
vt 0.395937 0.218656
vt 0.616550 0.474900
vt 0.604063 0.250000
vt 0.604063 0.474900
vt 0.395937 0.718656
vt 0.387612 0.512612
vt 0.387612 0.731144
vt 0.616550 0.962413
vt 0.616550 0.937438
vt 0.395937 0.937438
vt 0.187562 0.531344
vt 0.349900 0.512612
vt 0.162587 0.512612
vt 0.837413 0.512612
vt 0.813187 0.718656
vt 0.837413 0.718656
vt 0.156250 0.500000
vt 0.437500 0.500000
vt 0.625000 0.468750
vt 0.625000 0.468750
vt 0.625000 0.468750
vt 0.000000 0.000000
vt 0.000000 0.000000
vt 0.395937 0.018856
vt 0.387612 0.018856
vt 0.387612 0.237388
vt 0.616550 0.250000
vt 0.395937 0.512612
vt 0.616550 0.731144
vt 0.616550 0.718656
vt 0.395937 0.775100
vt 0.387612 0.775100
vt 0.387612 0.962412
vt 0.162587 0.731144
vt 0.187562 0.731144
vt 0.349900 0.531344
vt 0.812438 0.512612
vn 1.0000 0.0000 0.0000
vn 0.0000 -1.0000 0.0000
vn -1.0000 0.0000 0.0000
vn 0.0000 0.0000 1.0000
vn 0.0000 0.0000 -1.0000
vn 0.0000 1.0000 0.0000
vn -1.0000 0.0000 0.0050
vn -0.0051 -1.0000 0.0000
vn 0.9998 -0.0204 0.0006
vn -0.0013 -0.9999 0.0150
vn 0.0000 -1.0000 0.0050
vn -1.0000 -0.0002 0.0050
vn 0.0000 -1.0000 -0.0003
usemtl Material
s off
f 20/1/1 59/2/1 21/3/1
f 18/4/2 44/5/2 19/6/2
f 60/7/3 38/8/3 37/9/3
f 22/10/3 47/11/3 10/12/3
f 33/13/4 61/14/4 66/15/4
f 41/16/5 5/17/5 8/18/5
f 58/19/1 19/6/1 44/5/1
f 10/12/6 21/3/6 22/10/6
f 63/20/6 23/21/6 62/22/6
f 17/23/6 43/24/6 57/25/6
f 55/26/4 6/27/4 13/28/4
f 38/8/5 65/29/5 36/30/5
f 9/31/6 46/32/6 6/27/6
f 34/33/1 66/15/1 39/34/1
f 42/35/3 17/23/3 57/25/3
f 1/36/7 46/32/7 55/26/7
f 5/17/6 54/37/6 4/38/6
f 64/39/5 21/3/5 59/2/5
f 49/40/4 6/27/4 46/32/4
f 18/4/4 15/41/4 17/23/4
f 56/42/3 10/12/3 47/11/3
f 37/9/4 39/34/4 60/7/4
f 28/43/2 45/44/2 70/45/2
f 67/46/5 27/47/5 25/48/5
f 53/49/6 30/50/6 32/51/6
f 14/52/6 51/53/6 15/41/6
f 30/50/1 69/54/1 29/55/1
f 13/28/6 10/12/6 11/56/6
f 16/57/1 51/53/1 43/24/1
f 4/38/1 6/27/1 7/58/1
f 28/43/4 62/22/4 23/21/4
f 68/59/2 25/48/2 31/60/2
f 38/8/2 33/13/2 37/9/2
f 9/31/5 54/37/5 3/61/5
f 7/58/2 41/16/2 8/18/2
f 25/48/3 27/47/3 24/62/3
f 9/31/5 3/61/5 1/36/5
f 32/51/5 29/55/5 31/60/5
f 2/63/5 47/11/5 10/12/5
f 56/64/8 47/65/8 2/66/8
f 24/62/4 52/67/4 26/68/4
f 2/69/4 20/1/4 10/12/4
f 13/28/1 9/31/1 12/70/1
f 35/71/1 65/29/1 61/14/1
f 67/72/1 52/73/1 63/74/1
f 50/75/4 68/76/4 69/77/4
f 54/78/3 41/79/3 49/80/3
f 57/81/5 43/82/5 51/83/5
f 66/84/6 65/85/6 48/86/6
f 64/87/8 2/88/8 47/89/8
f 20/1/9 2/69/9 59/2/9
f 18/4/2 42/35/2 44/5/2
f 60/7/3 48/90/3 38/8/3
f 22/10/3 64/39/3 47/11/3
f 33/13/4 35/71/4 61/14/4
f 41/16/5 40/91/5 5/17/5
f 58/19/1 14/52/1 19/6/1
f 10/12/6 20/1/6 21/3/6
f 63/20/6 24/62/6 23/21/6
f 17/23/6 16/57/6 43/24/6
f 55/26/4 46/32/4 6/27/4
f 13/28/4 11/56/4 55/26/4
f 11/56/4 56/42/4 55/26/4
f 38/8/5 48/90/5 65/29/5
f 9/31/6 3/61/6 46/32/6
f 34/33/1 33/13/1 66/15/1
f 42/35/3 18/4/3 17/23/3
f 1/36/7 3/61/7 46/32/7
f 5/17/6 40/91/6 54/37/6
f 64/39/5 22/10/5 21/3/5
f 49/40/4 7/58/4 6/27/4
f 18/4/4 19/6/4 15/41/4
f 19/6/4 14/52/4 15/41/4
f 15/41/4 16/57/4 17/23/4
f 56/42/3 11/56/3 10/12/3
f 37/9/4 34/33/4 39/34/4
f 28/43/2 27/47/2 45/44/2
f 67/46/5 45/44/5 27/47/5
f 53/49/6 50/92/6 30/50/6
f 32/51/6 26/68/6 53/49/6
f 26/68/6 52/67/6 53/49/6
f 14/52/6 58/19/6 51/53/6
f 30/50/1 50/93/1 69/54/1
f 13/28/6 12/70/6 10/12/6
f 16/57/1 15/41/1 51/53/1
f 7/58/1 8/18/1 4/38/1
f 8/18/1 5/17/1 4/38/1
f 4/38/1 9/31/1 6/27/1
f 28/43/4 70/45/4 62/22/4
f 68/59/2 67/46/2 25/48/2
f 31/60/2 29/55/2 68/59/2
f 29/55/2 69/94/2 68/59/2
f 38/8/2 36/30/2 33/13/2
f 36/30/2 35/71/2 33/13/2
f 33/13/2 34/33/2 37/9/2
f 9/31/5 4/38/5 54/37/5
f 7/58/2 49/40/2 41/16/2
f 26/68/3 32/51/3 25/48/3
f 32/51/3 31/60/3 25/48/3
f 28/43/3 23/21/3 24/62/3
f 24/62/3 26/68/3 25/48/3
f 27/47/3 28/43/3 24/62/3
f 1/36/5 2/63/5 12/70/5
f 2/63/5 10/12/5 12/70/5
f 12/70/5 9/31/5 1/36/5
f 32/51/5 30/50/5 29/55/5
f 2/66/10 1/95/10 55/96/10
f 55/96/11 56/64/11 2/66/11
f 24/62/4 63/20/4 52/67/4
f 13/28/1 6/27/1 9/31/1
f 35/71/1 36/30/1 65/29/1
f 62/97/1 70/98/1 63/74/1
f 70/98/1 45/99/1 63/74/1
f 67/72/1 68/76/1 53/100/1
f 67/72/1 53/100/1 52/73/1
f 63/74/1 45/99/1 67/72/1
f 50/75/4 53/100/4 68/76/4
f 54/78/3 40/101/3 41/79/3
f 49/80/3 46/102/3 54/78/3
f 46/102/12 3/103/12 54/78/12
f 58/104/5 44/105/5 51/83/5
f 44/105/5 42/106/5 51/83/5
f 42/106/5 57/81/5 51/83/5
f 48/86/6 60/107/6 66/84/6
f 60/107/6 39/108/6 66/84/6
f 66/84/6 61/109/6 65/85/6
f 64/87/13 59/110/13 2/88/13
